<?xml version="1.0" encoding="utf-8"?>
<!-- Generator: Adobe Illustrator 21.1.0, SVG Export Plug-In . SVG Version: 6.00 Build 0)  -->
<svg version="1.1" id="Layer_1" xmlns="http://www.w3.org/2000/svg" xmlns:xlink="http://www.w3.org/1999/xlink" x="0px" y="0px"
	 viewBox="0 0 1920 1080" style="enable-background:new 0 0 1920 1080;" xml:space="preserve">
<style type="text/css">
	.st0{fill:#2A152B;}
	.st1{fill:#2A192D;}
	.st2{fill:#2D1C30;}
	.st3{fill:#231123;}
	.st4{fill:#281428;}
	.st5{fill:#200F21;}
	.st6{fill:none;stroke:#200F21;stroke-miterlimit:10;}
	.st7{fill:#D3DBDD;}
	.st8{fill:none;stroke:#2D1C30;stroke-miterlimit:10;}
	.st9{fill:#219B9B;}
	.st10{fill:#BFBFBF;}
	.st11{fill:#E4D6A7;}
	.st12{fill:#3B9696;}
	.st13{opacity:0.97;fill:#50A2A7;enable-background:new    ;}
	.st14{opacity:0.97;fill:#F2F0F0;enable-background:new    ;}
	.st15{fill:#A0A0A0;}
	.st16{opacity:0.88;}
	.st17{fill:#1D101E;}
	.st18{opacity:0.97;fill:#1D101E;enable-background:new    ;}
	.st19{display:none;}
	.st20{display:inline;opacity:6.000000e-02;}
	.st21{fill:#D3CD00;}
	.st22{display:inline;opacity:0.14;}
	.st23{display:inline;opacity:0.49;}
	.st24{display:inline;fill:#D3CD00;}
	.st25{fill:#332433;}
	.st26{fill:#281A28;}
	.st27{fill:#2C1A2D;}
</style>
<g>
	
		<image style="overflow:visible;enable-background:new    ;" width="75" height="75" xlink:href="CDA7C34.jpg"  transform="matrix(0.9867 0 0 0.9867 410.3855 584.7371)">
	</image>
</g>
<g>
	
		<image style="overflow:visible;enable-background:new    ;" width="264" height="265" xlink:href="CDA7C35.jpg"  transform="matrix(0.9981 0 0 0.9981 315.2498 489.4878)">
	</image>
</g>
<g>
	
		<image style="overflow:visible;enable-background:new    ;" width="771" height="771" xlink:href="CDA7C3E.jpg"  transform="matrix(1 0 0 1 62 236)">
	</image>
</g>
<g>
	
		<image style="overflow:visible;enable-background:new    ;" width="1355" height="692" xlink:href="CDA7C33.jpg"  transform="matrix(1 0 0 1 314 189)">
	</image>
</g>
<g>
	
		<image style="overflow:visible;enable-background:new    ;" width="1946" height="923" xlink:href="CDA7C37.jpg"  transform="matrix(1 0 0 1 -10 92)">
	</image>
</g>
<g>
	
		<image style="overflow:visible;enable-background:new    ;" width="1946" height="923" xlink:href="CDA7C30.jpg"  transform="matrix(1 0 0 1 -10 92)">
	</image>
</g>
<g id="Layer_2_1_">
	<rect y="-6" class="st0" width="1926" height="1096"/>
</g>
<g id="Layer_3">
	<g>
		<g>
			<g>
				<ellipse class="st1" cx="963" cy="553.8" rx="970.8" ry="459"/>
			</g>
		</g>
	</g>
</g>
<g id="Layer_4">
	<g>
		<g>
			<ellipse class="st2" cx="991.9" cy="535" rx="675.1" ry="343.3"/>
		</g>
	</g>
</g>
<g id="Layer_2_3_">
	<path class="st3" d="M738.6,964.6H444.4c-6.6,0-12-5.4-12-12V515c0-6.6,5.4-12,12-12h294.2c6.6,0,12,5.4,12,12v437.7
		C750.6,959.2,745.2,964.6,738.6,964.6z"/>
	<path class="st3" d="M898.8,763H743.2c-5.6,0-10.2,4.6-10.2,10.2l0,0c0,5.6,4.6,10.2,10.2,10.2h155.6c5.6,0,10.2-4.6,10.2-10.2l0,0
		C909,767.6,904.4,763,898.8,763z"/>
	<path class="st3" d="M1448,963.4H882.6c-6.6,0-12-5.4-12-12V753.6c0-6.6,5.4-12,12-12H1448c6.6,0,12,5.4,12,12v197.8
		C1460,958,1454.6,963.4,1448,963.4z"/>
	<polygon class="st3" points="526,503 484.4,389.1 719.1,389.1 671.6,503 	"/>
	<polygon class="st3" points="562.5,270.4 641.1,270.4 614.1,236 614.1,20.1 591.5,20.1 591.5,236 	"/>
</g>
<g id="Layer_4_1_">
	<g id="cog2">
		<path class="st3" d="M1055.4,734.4c1-0.2,1.9-0.5,2.9-0.5c0.6,0,1.5,0.4,1.6,0.7c0.2,0.6-0.1,1.4-0.5,1.9
			c-0.6,0.7-1.5,1.2-2.1,2.3c0.8,0,1.7-0.1,2.5,0c0.8,0.2,1.5,0.7,2.2,1c-0.4,0.7-0.6,1.4-1.1,1.9c-0.5,0.5-1.3,0.8-2,1.8
			c0.9,0.1,1.9,0,2.7,0.3c0.7,0.2,1.4,0.9,1.6,1.5c0.1,0.4-0.6,1.2-1.1,1.6c-0.6,0.5-1.4,0.7-2.2,1.6c0.8,0.2,1.7,0.3,2.4,0.6
			c0.7,0.3,1.2,0.9,1.8,1.3c-0.5,0.6-0.9,1.3-1.5,1.7c-0.6,0.4-1.5,0.6-2.4,1.4c0.7,0.3,1.4,0.5,2,0.9c0.7,0.4,1.2,1.1,1.8,1.6
			c-0.7,0.5-1.4,1.1-2.1,1.5c-0.6,0.3-1.3,0.4-2,0.5c0,0.2,0,0.4,0,0.6c0.8,0.4,1.6,0.6,2.3,1.1c0.5,0.4,0.9,1.1,1.3,1.6
			c-0.6,0.4-1.1,1.1-1.8,1.3c-0.8,0.3-1.6,0.2-2.7,0.3c0.5,1.1,0.2,2.3,2,2c1,0.3,0.9,1.1,1.3,1.8c-0.6,0.4-1.2,1.1-1.8,1.2
			c-0.8,0.2-1.8-0.1-2.9,0.4c0.6,0.5,1.1,1,1.6,1.6c0.5,0.5,0.8,1.1,1.2,1.7c-0.7,0.4-1.4,1-2.2,1.2c-0.7,0.2-1.5-0.1-2.9-0.2
			c0.9,1.1,1.5,1.8,1.9,2.5c0.3,0.5,0.7,1.5,0.4,1.8c-0.3,0.4-1.2,0.7-1.9,0.6c-0.9-0.1-1.8-0.5-2.7-0.7c-0.1,0.2-0.2,0.4-0.4,0.5
			c0.6,0.7,1.3,1.4,1.7,2.2c0.3,0.6,0.5,1.5,0.2,2c-0.2,0.4-1.3,0.4-1.9,0.3c-1-0.2-1.9-0.6-3.5-1.2c1.1,2,1.8,3.2,2.5,4.5
			c-0.2,0.2-0.3,0.4-0.5,0.5c-1.6-0.2-3.1-0.4-5.1-0.6c0.2,0.5,0.5,1.1,0.6,1.8c0.1,0.9,0,1.8,0,2.7c-0.8-0.2-1.7-0.2-2.5-0.5
			c-0.7-0.2-1.2-0.8-2.4-1.6c0.4,1.5,0.8,2.3,0.8,3.2c0,0.7-0.2,1.6-0.7,2.1c-0.2,0.2-1.3-0.2-1.9-0.5c-0.7-0.4-1.2-1-2.3-2
			c0.2,1.5,0.3,2.4,0.3,3.3c0,0.6-0.3,1.5-0.7,1.6c-0.6,0.2-1.4-0.1-1.9-0.4c-0.7-0.5-1.3-1.3-1.9-2c-0.2,0.1-0.4,0.2-0.6,0.3
			c0.1,0.9,0.3,1.9,0.2,2.8c-0.1,0.6-0.5,1.3-1,1.5c-0.5,0.2-1.3-0.2-1.7-0.6c-0.7-0.7-1.1-1.6-2.2-2.3c-0.1,1-0.2,2-0.5,3
			c-0.2,0.5-0.7,1.3-1.2,1.3c-0.5,0.1-1.2-0.4-1.6-0.9c-0.5-0.8-0.8-1.7-1.2-2.6c-0.2,0-0.4,0-0.6,0c-0.2,0.8-0.3,1.6-0.6,2.4
			c-0.3,0.7-1,1.3-1.5,1.9c-0.5-0.5-1.2-1-1.6-1.6c-0.4-0.7-0.6-1.5-1.4-2.4c-0.3,0.9-0.6,1.9-1.1,2.7c-0.3,0.5-1,1.1-1.6,1.2
			c-0.4,0-1-0.7-1.3-1.2c-0.4-0.9-0.5-1.8-1.3-2.9c-0.4,0.8-0.7,1.7-1.3,2.5c-0.4,0.5-1.1,1.2-1.6,1.1c-0.5-0.1-1-1-1.1-1.6
			c-0.2-0.8-0.1-1.6-0.2-2.5c-0.2-0.1-0.4-0.2-0.6-0.3c-0.5,0.6-0.9,1.3-1.5,1.8c-0.6,0.5-1.3,0.9-2,1.4c-0.3-0.7-0.8-1.3-1-2
			c-0.2-0.8,0-1.6-0.6-2.6c-0.5,0.6-0.9,1.3-1.5,1.6c-0.7,0.5-1.6,0.7-2.4,1c-0.2-0.8-0.4-1.6-0.5-2.4c0-0.7,0.2-1.4,0.3-2
			c-0.2-0.1-0.3-0.2-0.5-0.4c-0.7,0.6-1.3,1.3-2,1.8c-0.6,0.4-1.5,0.4-2.2,0.6c-0.1-0.7-0.4-1.5-0.4-2.2c0.1-0.8,0.4-1.5,0.7-2.3
			c-0.2-0.1-0.3-0.3-0.5-0.4c-0.5,0.3-1,0.6-1.5,1c-0.9,0.6-1.5,2-2.9,0.8c-1.4-1.1-0.1-2,0.2-3c0.1-0.5,0.3-1.1,0.7-2.2
			c-1.3,0.7-2,1.3-2.9,1.5c-0.7,0.2-1.5,0-2.2,0c0-0.7-0.1-1.5,0.1-2.2c0.2-0.8,0.8-1.4,0.9-2.6c-0.8,0.3-1.6,0.6-2.4,0.8
			c-0.7,0.1-1.5,0-2.2-0.1c0.1-0.8,0-1.6,0.2-2.3c0.3-0.7,1-1.3,1.3-2.5c-0.9,0.2-1.7,0.5-2.6,0.5c-0.7,0-1.4-0.2-2.2-0.4
			c0.2-0.7,0.1-1.6,0.6-2.1c0.5-0.6,1.5-0.8,2.2-1.2c-0.3-0.4-0.5-0.8-0.8-1.2c-1,0.1-1.9,0.4-2.9,0.3c-0.7,0-1.6-0.3-1.8-0.8
			c-0.2-0.4,0.3-1.3,0.7-1.8c0.6-0.7,1.3-1.2,2-1.7c-0.1-0.2-0.1-0.4-0.2-0.6c-0.8,0-1.7,0.1-2.5,0c-0.7-0.1-1.4-0.6-2.1-0.9
			c0.4-0.6,0.7-1.4,1.2-1.9c0.6-0.6,1.4-1,2.1-1.5c-0.1-0.2-0.1-0.4-0.2-0.7c-0.9,0-1.9,0-2.8-0.2c-0.6-0.1-1.4-0.6-1.4-1
			c0-0.6,0.4-1.4,0.9-1.8c0.7-0.6,1.6-0.9,2.4-1.9c-0.8-0.2-1.8-0.3-2.5-0.7c-0.6-0.3-1.3-0.9-1.5-1.5c-0.1-0.3,0.8-1.1,1.4-1.4
			c0.7-0.4,1.6-0.6,2.4-0.8c0-0.2,0-0.4,0-0.7c-0.9-0.3-1.8-0.5-2.6-1c-0.6-0.3-1.3-1-1.3-1.5c0-0.5,0.8-1.1,1.4-1.4
			c0.8-0.4,1.7-0.4,2.7-1.2c-0.6-0.3-1.3-0.5-1.8-0.9c-0.7-0.6-1.1-1.3-1.7-2c0.7-0.4,1.4-1,2.1-1.2c0.7-0.2,1.4-0.2,2.3-0.8
			c-0.7-0.5-1.5-0.9-2.1-1.5c-0.5-0.5-0.7-1.2-1.1-1.8c0.7-0.3,1.3-0.8,2-1c0.8-0.2,1.7,0,2.6,0c0.1-0.2,0.1-0.4,0.2-0.6
			c-0.8-0.6-1.6-1.1-2.3-1.7c-0.4-0.4-0.8-1.3-0.6-1.7c0.3-0.5,1.1-1,1.7-1c0.9-0.1,1.9,0.2,3.1-0.1c-0.5-0.6-1.1-1.1-1.5-1.8
			c-0.4-0.7-0.6-1.5-0.8-2.3c0.8-0.2,1.6-0.5,2.4-0.5c0.8,0,1.6,0.4,2.7,0.2c-0.5-0.7-0.7-1.3-0.9-2c-0.2-0.8-0.5-1.8-0.5-2.7
			c0.7,0.1,2.1,0.3,2.8,0.5c0.8,0.2,0.8,0.2,1.9,0c-0.5-0.8-1.1-1.5-1.5-2.3c-0.2-0.6-0.2-2.2-0.2-2.2c0.9,0,1.6-0.1,2.2,0.1
			c0.9,0.3,1.8,0.9,2.7,1.4c0.1-0.1,0.3-0.3,0.4-0.4c-0.4-0.9-1-1.8-1.2-2.8c-0.1-0.6,0-1.6,0.5-2c0.4-0.3,1.4,0,1.9,0.2
			c0.8,0.4,1.5,1,2.7,1.2c-0.2-0.9-0.6-1.9-0.6-2.8c0-0.6,0.2-1.6,0.6-1.8c0.5-0.2,1.4,0,1.9,0.4c0.7,0.6,1.1,1.4,1.6,2.2
			c0.3-0.2,0.6-0.3,0.9-0.5c-0.1-1-0.3-1.9-0.3-2.9c0-0.6,0.3-1.5,0.7-1.7c0.6-0.2,1.4,0.1,1.9,0.5c0.7,0.6,1.3,1.4,2.4,2.7
			c0-1.7-0.1-2.7,0-3.7c0.1-0.6,0.5-1.4,0.9-1.5c0.5-0.1,1.3,0.2,1.7,0.6c0.7,0.7,1.1,1.5,1.6,2.3c0.2,0,0.5-0.1,0.7-0.1
			c0.1-0.9,0-1.9,0.2-2.7c0.2-0.6,0.7-1.4,1.3-1.5c0.4-0.1,1.2,0.6,1.6,1.1c0.5,0.7,0.9,1.6,1.3,2.4c0.2,0,0.4-0.1,0.7-0.1
			c0.2-1,0.3-2,0.6-3c0.2-0.5,0.7-1.1,1.1-1.1c0.5,0,1.3,0.4,1.6,0.9c0.5,0.8,0.8,1.8,1.4,3.3c0.6-1.5,0.9-2.4,1.3-3.2
			c0.3-0.5,1-1.1,1.4-1.1c0.5,0,1.2,0.6,1.4,1.1c0.4,0.9,0.5,1.8,0.9,3.4c0.7-1.4,1-2.3,1.6-3.1c0.4-0.5,1.2-1.1,1.7-1
			c0.5,0.1,1.1,0.9,1.3,1.6c0.3,0.8,0.2,1.8,0.7,2.9c0.4-0.6,0.7-1.4,1.2-1.9c0.6-0.6,1.4-0.9,2.1-1.3c0.4,0.7,0.9,1.4,1.1,2.2
			c0.2,0.7,0,1.4,0,2.8c1-1.1,1.5-1.9,2.2-2.4c0.6-0.4,1.6-0.8,2.1-0.6c0.5,0.3,0.7,1.3,0.7,2.1c0.1,0.8-0.2,1.5,0.1,2.6
			c0.5-0.5,1-1.1,1.6-1.4c0.8-0.4,1.7-0.5,2.5-0.7c0.1,0.8,0.3,1.6,0.3,2.4c0,0.8-0.3,1.5-0.5,2.2c0.2,0.1,0.4,0.2,0.6,0.3
			c0.7-0.6,1.2-1.3,2-1.6c0.6-0.3,1.6-0.4,2.2-0.2c0.3,0.1,0.4,1.3,0.2,2c-0.2,0.8-0.6,1.5-0.6,2.8c0.9-0.4,1.7-1,2.6-1.2
			c0.6-0.2,1.5-0.1,2,0.2c0.3,0.2,0.3,1.2,0.1,1.8c-0.3,0.9-0.9,1.7-1.3,2.5c0.1,0.1,0.3,0.3,0.4,0.4c0.9-0.4,1.7-0.8,2.6-1
			c0.6-0.1,1.5-0.1,1.7,0.2c0.3,0.5,0.3,1.4,0.1,2c-0.4,0.9-1.1,1.7-1.6,2.5c0.1,0.2,0.3,0.3,0.4,0.5c0.9-0.3,1.8-0.7,2.7-0.8
			c0.6-0.1,1.5,0.2,1.9,0.7c0.3,0.3,0,1.2-0.3,1.7c-0.5,0.8-1.3,1.5-1.9,2.3C1055.1,734,1055.3,734.2,1055.4,734.4z"/>
	</g>
</g>
<g id="Layer_3_1_">
	<g id="cog1">
		<path class="st3" d="M964.9,707.7c2.1-0.4,4.2-1,6.2-1.1c1.2,0,3.2,0.8,3.5,1.6c0.3,1.2-0.2,3.1-1.1,4.2c-1.3,1.5-3.3,2.6-4.6,5
			c1.8,0,3.7-0.3,5.4,0.1c1.7,0.4,3.2,1.5,4.8,2.3c-0.8,1.4-1.3,3.1-2.4,4.2c-1.2,1.2-2.9,1.8-4.3,4c2,0.2,4.1,0,5.8,0.6
			c1.4,0.5,3,1.9,3.5,3.2c0.3,0.8-1.3,2.6-2.5,3.4c-1.4,1-3.1,1.5-4.7,3.6c1.7,0.4,3.6,0.6,5.2,1.4c1.4,0.7,2.6,1.9,3.9,2.9
			c-1,1.3-1.9,2.8-3.2,3.7c-1.4,1-3.2,1.3-5.1,3.1c1.5,0.6,3.1,1.1,4.4,2c1.5,1,2.6,2.3,3.9,3.5c-1.5,1.1-3,2.4-4.7,3.3
			c-1.3,0.7-2.9,0.8-4.4,1.1c0,0.5-0.1,0.9-0.1,1.4c1.7,0.8,3.5,1.4,5,2.5c1.2,0.9,1.9,2.3,2.8,3.5c-1.3,1-2.5,2.3-4,2.8
			c-1.6,0.6-3.5,0.5-5.9,0.7c1.1,2.3,0.5,5,4.3,4.4c2.2,0.6,1.9,2.5,2.9,3.8c-1.3,0.9-2.5,2.3-4,2.7c-1.8,0.4-3.8-0.1-6.3,0.8
			c1.2,1.1,2.5,2.2,3.6,3.5c1,1.1,1.8,2.5,2.7,3.7c-1.6,0.9-3.2,2.1-4.9,2.5c-1.5,0.4-3.2-0.1-6.2-0.3c1.9,2.4,3.3,3.8,4.2,5.5
			c0.7,1.2,1.4,3.2,0.9,4c-0.7,1-2.7,1.4-4,1.3c-2-0.1-3.9-1-5.8-1.6c-0.3,0.4-0.5,0.8-0.8,1.1c1.2,1.6,2.7,3,3.6,4.8
			c0.6,1.3,1.1,3.4,0.5,4.3c-0.5,0.8-2.8,0.9-4.2,0.7c-2.1-0.4-4.1-1.3-7.6-2.5c2.4,4.2,4,7,5.5,9.8c-0.3,0.4-0.7,0.8-1,1.2
			c-3.4-0.4-6.8-0.8-11-1.4c0.4,1.1,1.1,2.4,1.2,3.9c0.2,1.9,0.1,3.9,0.1,5.9c-1.8-0.4-3.7-0.5-5.5-1.2c-1.4-0.5-2.6-1.6-5.3-3.4
			c0.9,3.3,1.7,5.1,1.7,6.9c0,1.5-0.4,3.5-1.4,4.5c-0.5,0.5-2.8-0.4-4.1-1.1c-1.5-0.9-2.7-2.2-5.1-4.3c0.3,3.3,0.7,5.2,0.6,7.1
			c-0.1,1.3-0.7,3.3-1.5,3.5c-1.2,0.4-3.1-0.1-4.2-0.9c-1.6-1.2-2.8-2.9-4.1-4.4c-0.4,0.2-0.8,0.4-1.2,0.6c0.1,2,0.6,4.1,0.3,6.1
			c-0.1,1.2-1.1,2.9-2.1,3.2c-1,0.3-2.9-0.3-3.8-1.2c-1.5-1.4-2.4-3.4-4.8-5c-0.3,2.2-0.4,4.4-1,6.4c-0.4,1.2-1.5,2.8-2.5,2.9
			c-1,0.2-2.7-0.9-3.4-1.9c-1.2-1.7-1.8-3.8-2.6-5.7c-0.4,0-0.9,0-1.3,0c-0.4,1.7-0.6,3.6-1.4,5.1c-0.8,1.5-2.1,2.8-3.2,4.2
			c-1.2-1.1-2.6-2.1-3.4-3.4c-0.9-1.5-1.3-3.3-3-5.1c-0.7,2-1.3,4.1-2.3,5.9c-0.7,1.2-2.2,2.4-3.5,2.6c-0.8,0.1-2.3-1.6-2.8-2.7
			c-0.8-1.9-1.1-4-2.8-6.3c-0.9,1.8-1.6,3.8-2.8,5.3c-0.8,1.1-2.5,2.5-3.5,2.3c-1-0.2-2.1-2.1-2.5-3.4c-0.5-1.7-0.3-3.6-0.3-5.4
			c-0.4-0.2-0.8-0.5-1.3-0.7c-1.1,1.3-2,2.8-3.2,3.9c-1.3,1.2-2.9,2-4.3,3c-0.7-1.5-1.8-2.9-2.1-4.4c-0.4-1.7-0.1-3.5-1.2-5.7
			c-1.1,1.2-2,2.7-3.3,3.6c-1.5,1-3.4,1.4-5.2,2.1c-0.4-1.7-1-3.4-1.1-5.2c-0.1-1.5,0.4-3,0.7-4.5c-0.4-0.3-0.7-0.5-1.1-0.8
			c-1.4,1.3-2.7,2.9-4.4,3.8c-1.4,0.8-3.2,0.8-4.8,1.2c-0.3-1.6-0.9-3.2-0.8-4.8c0.1-1.7,0.9-3.3,1.4-5c-0.3-0.3-0.7-0.6-1-0.8
			c-1.1,0.7-2.2,1.4-3.3,2.1c-1.9,1.2-3.2,4.3-6.3,1.8c-3-2.5-0.1-4.4,0.5-6.6c0.3-1.2,0.7-2.3,1.5-4.8c-2.9,1.6-4.5,2.8-6.2,3.3
			c-1.5,0.4-3.2,0.1-4.8,0c0-1.6-0.2-3.3,0.2-4.7c0.5-1.6,1.7-3.1,1.9-5.6c-1.7,0.6-3.4,1.4-5.2,1.7c-1.6,0.3-3.2-0.1-4.8-0.1
			c0.1-1.6-0.1-3.4,0.5-4.9c0.7-1.6,2.1-2.9,2.8-5.4c-1.9,0.4-3.7,1.1-5.6,1.2c-1.6,0.1-3.1-0.5-4.7-0.8c0.4-1.6,0.3-3.6,1.3-4.6
			c1.2-1.3,3.2-1.8,4.8-2.7c-0.6-0.9-1.1-1.7-1.7-2.6c-2.1,0.3-4.2,0.8-6.2,0.7c-1.4-0.1-3.5-0.7-4-1.8c-0.4-0.9,0.6-2.9,1.5-4
			c1.2-1.5,2.9-2.5,4.4-3.8c-0.1-0.5-0.2-0.9-0.4-1.4c-1.8,0-3.7,0.3-5.5-0.1c-1.6-0.3-3-1.3-4.5-1.9c0.8-1.4,1.5-3,2.6-4.1
			c1.3-1.3,3-2.1,4.5-3.2c-0.1-0.5-0.3-1-0.4-1.4c-2-0.1-4.2,0-6.1-0.4c-1.2-0.3-3.1-1.4-3.1-2.2c-0.1-1.3,0.8-3,1.9-3.9
			c1.5-1.3,3.6-2,5.2-4.1c-1.8-0.5-3.8-0.6-5.5-1.4c-1.4-0.7-2.9-2-3.3-3.4c-0.2-0.7,1.7-2.4,2.9-3.1c1.6-0.9,3.5-1.2,5.3-1.8
			c0-0.5,0-1,0-1.4c-1.9-0.7-3.9-1.1-5.7-2.1c-1.2-0.7-2.9-2.2-2.8-3.2c0.1-1.1,1.8-2.4,3.1-3.1c1.7-0.8,3.7-1,5.8-2.7
			c-1.3-0.7-2.9-1.1-3.9-2c-1.4-1.3-2.5-2.9-3.7-4.4c1.5-0.9,3-2.1,4.6-2.7c1.4-0.5,3.1-0.4,5-1.8c-1.6-1-3.3-1.9-4.6-3.2
			c-1.1-1.1-1.6-2.7-2.4-4c1.5-0.7,2.9-1.8,4.4-2.1c1.8-0.4,3.7-0.1,5.6-0.1c0.1-0.4,0.2-0.8,0.4-1.2c-1.7-1.2-3.5-2.3-4.9-3.8
			c-0.9-0.9-1.8-2.8-1.4-3.6c0.6-1.1,2.4-2.1,3.7-2.2c2-0.2,4.1,0.5,6.8-0.2c-1.1-1.3-2.5-2.4-3.3-3.9c-0.9-1.5-1.2-3.3-1.8-4.9
			c1.7-0.4,3.4-1.1,5.1-1c1.7,0,3.4,0.8,5.8,0.3c-1.1-1.5-1.6-2.7-2.1-4.4c-0.5-1.7-1.1-3.9-1-5.8c1.5,0.1,4.6,0.7,6.1,1.1
			c1.7,0.4,1.7,0.5,4.1,0.1c-1.1-1.7-2.5-3.3-3.2-5.1c-0.5-1.3-0.4-4.8-0.4-4.8c1.9,0,3.5-0.3,4.7,0.2c2.1,0.7,3.9,2,5.8,3.1
			c0.3-0.3,0.6-0.6,0.9-0.9c-0.9-2-2.2-3.9-2.7-6c-0.3-1.3,0.1-3.5,1-4.3c0.8-0.6,3-0.1,4.2,0.5c1.8,0.9,3.3,2.3,5.8,2.7
			c-0.5-2-1.2-4-1.4-6.1c-0.1-1.3,0.4-3.5,1.2-3.9c1-0.5,3.1,0.1,4.1,0.9c1.5,1.2,2.4,3.1,3.5,4.7c0.6-0.4,1.3-0.7,1.9-1.1
			c-0.3-2.1-0.8-4.2-0.7-6.3c0-1.3,0.7-3.4,1.5-3.6c1.2-0.4,3.1,0.2,4.2,1c1.6,1.2,2.8,3.1,5.1,5.8c0-3.7-0.2-5.9,0.1-8.1
			c0.2-1.2,1.1-2.9,2-3.2c1.1-0.3,2.9,0.4,3.8,1.2c1.4,1.4,2.3,3.4,3.5,5.1c0.5-0.1,1-0.2,1.5-0.3c0.1-2-0.1-4.1,0.5-5.9
			c0.4-1.3,1.6-3,2.7-3.3c0.9-0.2,2.6,1.2,3.4,2.3c1.2,1.6,1.9,3.5,2.8,5.3c0.5-0.1,1-0.1,1.5-0.2c0.4-2.2,0.6-4.4,1.2-6.5
			c0.3-1,1.6-2.5,2.4-2.5c1.2,0,2.8,0.9,3.5,1.9c1.1,1.7,1.7,3.8,3,7.2c1.3-3.2,1.9-5.2,2.9-6.9c0.7-1.1,2.1-2.4,3.1-2.3
			c1.1,0,2.5,1.3,3.1,2.5c0.9,1.9,1.1,4,2,7.5c1.5-3.1,2.2-5.1,3.5-6.7c0.8-1.1,2.6-2.4,3.6-2.2c1.2,0.3,2.3,2,2.8,3.4
			c0.6,1.8,0.4,3.8,1.6,6.3c0.9-1.4,1.6-3,2.7-4.1c1.3-1.2,3-1.9,4.6-2.8c0.8,1.6,1.9,3.1,2.4,4.8c0.4,1.5,0.1,3.1,0.1,6.2
			c2.2-2.4,3.2-4.1,4.7-5.1c1.3-0.9,3.6-1.8,4.5-1.3c1.1,0.7,1.5,2.9,1.6,4.5c0.1,1.6-0.5,3.3,0.3,5.6c1.1-1,2.1-2.4,3.5-3
			c1.7-0.8,3.7-1.1,5.5-1.5c0.2,1.7,0.7,3.5,0.7,5.2c-0.1,1.6-0.7,3.2-1.1,4.9c0.4,0.2,0.8,0.5,1.2,0.7c1.4-1.2,2.7-2.8,4.3-3.5
			c1.4-0.7,3.4-0.9,4.8-0.4c0.7,0.3,0.8,2.9,0.5,4.3c-0.4,1.7-1.4,3.3-1.4,6c1.9-0.9,3.7-2.1,5.7-2.7c1.3-0.4,3.3-0.3,4.3,0.4
			c0.7,0.5,0.6,2.7,0.1,3.9c-0.7,1.9-1.9,3.6-2.9,5.4c0.3,0.3,0.6,0.6,0.9,0.9c1.9-0.8,3.7-1.8,5.6-2.3c1.2-0.3,3.3-0.3,3.8,0.4
			c0.7,1.1,0.7,3,0.2,4.3c-0.8,2-2.3,3.7-3.5,5.5c0.3,0.4,0.6,0.7,0.8,1.1c1.9-0.6,3.9-1.6,5.9-1.8c1.3-0.1,3.2,0.5,4,1.4
			c0.5,0.6,0,2.7-0.6,3.7c-1.2,1.8-2.8,3.3-4.2,4.9C964.3,707,964.6,707.3,964.9,707.7z M868.5,703.7c0.1-12.7-9.4-22.6-21.7-22.6
			c-11.9,0-21.9,10.1-22,22c0,12.4,9.3,21.9,21.7,22C859.2,725.2,868.4,716.2,868.5,703.7z M882.8,805.4
			c-0.1-12-10.1-21.9-22.1-21.8c-12,0.1-21.9,10.1-21.9,22.1c0,12,9.9,22,21.9,22C873.2,827.6,882.9,817.8,882.8,805.4z
			 M964.3,743.1c-0.9-12.6-9.6-22.9-21.5-23c-11.9-0.1-21.9,9.7-21.9,21.8c0,5.8,1.6,10.9,5.7,15.4c5.2,5.7,11.3,7.6,18,7.5
			c5.5-0.1,11.2-3.5,14.5-7.2C962.3,753.3,964.2,750.2,964.3,743.1z M823.8,736.4c-11.9,0.1-21.7,10.4-21.5,22.4
			c0.2,12,10.3,21.8,22.2,21.7c11.9-0.1,21.9-10.3,21.8-22.1C846.3,746.2,836.1,736.3,823.8,736.4z M927.8,695.1
			c0-12.4-9.4-21.8-21.7-21.9c-11.9-0.1-22.5,10.5-22.3,22.3c0.1,11.3,10.7,21.4,22.2,21.3C918.4,716.8,927.8,707.5,927.8,695.1z
			 M941.8,797.6c0.2-11.9-9-21.5-20.7-21.7c-12.7-0.2-22.4,8.7-22.7,20.8c-0.3,12.4,9.1,22.6,21,22.9
			C931.5,819.9,941.6,810,941.8,797.6z M883.4,742.2c-4.5,0-8.5,3.7-8.6,8.1c-0.1,4.3,4,8.6,8.1,8.6c4.8,0,8.7-3.8,8.7-8.4
			C891.6,745.8,887.9,742.1,883.4,742.2z"/>
	</g>
</g>
<g id="Layer_5">
	<g id="Layer_2_2_">
		<path class="st4" d="M1901.7,847.9c0,0-38.8-8.2-46.8-58c0,0-7-14.1-14.9-24v-24.6c0,0-7.5-1.2-7-9s-7,28.2-7,28.2
			s-10,9.3-15.9,8.4s-11,72.7-11,72.7s-13.4-2.1-11,18.6l-0.3,18.6c0,0-39,1.5-39.5-27c0,0-9.5-9.9-37.8-21.6
			c0,0-53.8-88.6-50.8-124.9c0,0-11,29.4-13.9,49.8c0,0-27.4,24.6-24.9,49.2c0,0-30.4,4.8-46.8,23.4c0,0-15.9,24-12.9,35.4l-10,1.2
			l-14.9,14.4c0,0-9.5,5.1-10,0s0-23.4,0-23.4s28.4-19.2,19.9-24c0,0-9.5-19.8-25.9-23.4v-25.2c0,0-12.5-10.8-14.9-13.2
			c-2.5-2.4,6.5-5.7,10-5.4S1505,646.4,1505,646.4l-20.5,62.5c-8.5-0.6-6,42.6-6,42.6s-7,3-12,39c-8.2,9.7-14.5,20-18.9,30.6
			c0,0-8,23.8-15.9,33c0,0-9.5,5.1-19.9,21.6c0,0-23.4,7.5-43.8,24.6l-5,11.4c0,0-66.7,22.8-73.7,33c0,0-87.7-10.8-103.6-5.4
			c0,0-29.9-15.6-46.8-17.4c0,0-3.5-9.6-27.9-18.6s-70.2-81.7-92.6-76.3s-83.7,73.2-83.7,73.2l-24-62.2c0,0-18.9,67.3-21.9,63.7
			S831,944.9,824,944.9h-92.6c0,0,4.5-12.9,0-15.6c-4.5-2.7-12.9-15-15.9-26.4s-6-21.6-6-21.6s17.4,0,7-9.6c-10.5-9.6-4-20.7-7-18.6
			c-3,2.1-7-97.9-7-97.9s-8.5-36.6-16.9-37.8v-74.5c0,0-9.5-20.1-5-22.8s-15.9,37.2-15.9,37.2V709c0,0-11-9-10,41.4
			c0,0-32.9,54.1-23.9,103.3c0,0,14.9,6.9-12,25.8c0,0-19.4,4.2-18.9,34.8c0,0-27.4,19.8-32.9,30.6l-84.7-3c0,0,2.5-55-22.9-66.1
			c0,0-5.5-33-13.9-32.4s-35.9-7.2-35.9-7.2s-15.9,25.5-33.9,1.2c-17.9-24.3-10-61.3-10-61.3s-16.4-7.8-15.9-14.4
			c0.5-6.6,6.5-52.6-5-49.2c-11.5,3.3-19.9,31.3-19.9,31.3L306,757l-5,8.4c0,0-28.4,21.9-45.8,23.4c0,0-9.5,34.5-47.8,39
			c0,0-48.8,10.2-56.8,18v9.6c0,0-46.3-3.6-46.8-8.4c-0.5-4.8-14.9-12.3-11-15c4-2.7,8.5-17.4-5-26.4s-5-26.4-5-26.4
			S4.3,835.3-5.7,835c-5.9-0.2-11.6,1.1-15.9,3.6L-32,965.4h1933.8V847.9H1901.7z"/>
	</g>
	<rect x="-32" y="965.4" class="st4" width="1952" height="114.6"/>
</g>
<g id="table">
	<rect x="1558.7" y="902.4" class="st5" width="21.2" height="177.6"/>
	<rect x="1104.5" y="902.4" class="st5" width="22.2" height="187.6"/>
	<rect x="1032.7" y="898.4" class="st5" width="610" height="22.9"/>
</g>
<g id="computer">
	<path class="st6" d="M1320.5,899.8c0,0-18.1-20.4-59.4-9.1s-49.4-16.3-52.2-27.4c-2.9-11.1,0-15.6,0-15.6"/>
	<path class="st5" d="M1210.6,902.6h-159.2c-6.6,0-12-5.4-12-12v-14.7c0-6.6,5.4-12,12-12h159.2c6.6,0,12,5.4,12,12v14.7
		C1222.6,897.2,1217.2,902.6,1210.6,902.6z"/>
	<rect x="1051.1" y="872.2" class="st2" width="101.9" height="13"/>
	<rect x="1131" y="876.8" class="st4" width="18.3" height="4.2"/>
	<path class="st5" d="M1411,844.4h-4.2c-3.3,0-6,2.7-6,6v43.4c0,3.3,2.7,6,6,6h4.2c3.3,0,6-2.7,6-6v-43.4
		C1417,847.1,1414.3,844.4,1411,844.4z"/>
	<rect x="1162.3" y="868.4" class="st2" width="8.8" height="31"/>
	<rect x="1174.6" y="868.4" class="st2" width="8.8" height="31"/>
	<rect x="1186.8" y="868.4" class="st2" width="8.8" height="31"/>
	<path class="st5" d="M1174.7,844.4h-4.2c-3.3,0-6,2.7-6,6v12c0,3.3,2.7,6,6,6h4.2c3.3,0,6-2.7,6-6v-12
		C1180.8,847.1,1178,844.4,1174.7,844.4z"/>
	<path class="st5" d="M1290.3,841.9v-117c0-3.5-2.9-6.4-6.4-6.4H1050c-3.5,0-6.4,2.9-6.4,6.4v117c0,3.5,2.9,6.4,6.4,6.4h233.9
		C1283.9,848.3,1291.3,849.5,1290.3,841.9z"/>
	<g>
		
			<image style="overflow:visible;opacity:0.48;enable-background:new    ;" width="479" height="361" xlink:href="CDA7C32.png"  transform="matrix(1 0 0 1 928 603)">
		</image>
		<g>
			<polyline class="st7" points="1286.3,843.7 1048,843.7 1048,723.2 1286.3,723.2 1286.3,843.7 			"/>
		</g>
	</g>
	<path class="st8" d="M1222.6,885.6c0,0,14.2,13.1,38.6,3.8s58.1,3.5,60.5,10.5"/>
	<path class="st5" d="M1511.9,841.9v-117c0-3.5-2.3-6.4-5-6.4h-183.8c-2.8,0-5,2.9-5,6.4v117c0,3.5,2.3,6.4,5,6.4h183.8
		C1506.9,848.3,1512.7,849.5,1511.9,841.9z"/>
	<g>
		
			<image style="overflow:visible;opacity:0.48;enable-background:new    ;" width="428" height="361" xlink:href="CDA7C31.png"  transform="matrix(1 0 0 1 1201 603)">
		</image>
		<g>
			<polyline class="st7" points="1508.8,843.7 1321.5,843.7 1321.5,723.2 1508.8,723.2 1508.8,843.7 			"/>
		</g>
	</g>
</g>
<g id="char">
	<g>
		<rect x="1221.5" y="973.2" class="st9" width="33.2" height="41.8"/>
		<rect x="1326.4" y="973.2" class="st9" width="32.5" height="41.8"/>
		<polygon class="st10" points="1221.5,818.5 1188.3,920.8 1221.5,920.8 		"/>
		<polyline class="st10" points="1358.9,920.8 1358.9,818.5 1392,920.8 		"/>
		<rect x="1363.1" y="920.8" class="st11" width="18.8" height="11.8"/>
		<rect x="1196.3" y="920.1" class="st11" width="18.8" height="11.8"/>
		<path class="st12" d="M1301.5,733c0-5.2-5.1-9.5-11.4-9.5s-11.4,4.3-11.4,9.5C1285.7,732.8,1293.4,732.8,1301.5,733z"/>
		<g>
			<path class="st13" d="M1339.1,775.2c0-23.5-19.2-42.7-42.7-42.7h-11.2c-23.5,0-42.7,19.2-42.7,42.7v43.3h96.7v-43.3H1339.1z"/>
			<rect x="1221.5" y="818.5" class="st14" width="137.7" height="154.8"/>
		</g>
	</g>
</g>
<g id="Layer2">
	<g>
		<rect x="458.7" y="-287.9" class="st11" width="17" height="11.8"/>
		<polygon class="st11" points="668.5,-267 683,-271.8 683.6,-258.9 669.1,-254.8 		"/>
		<rect x="486.6" y="-183.9" class="st9" width="33.2" height="41.8"/>
		<polygon class="st10" points="624.3,-338.6 684,-258.1 665.5,-247.1 620.3,-294 		"/>
		<rect x="591.5" y="-183.9" class="st9" width="32.5" height="41.8"/>
		<polyline class="st10" points="486.6,-258.2 486.6,-338.6 466.2,-258.2 486.6,-258.2 486.6,-338.6 		"/>
		<path class="st12" d="M566.6-424.1c0-5.2-5.1-9.5-11.4-9.5s-11.4,4.3-11.4,9.5C550.8-424.3,558.5-424.3,566.6-424.1z"/>
		<g>
			<path class="st13" d="M604.2-381.9c0-23.5-19.2-42.7-42.7-42.7h-11.2c-23.5,0-42.7,19.2-42.7,42.7v43.3h96.7L604.2-381.9
				L604.2-381.9z"/>
			<rect x="486.6" y="-338.6" class="st14" width="137.7" height="154.8"/>
		</g>
		<polygon class="st15" points="456.8,-276.1 466.2,-258.2 470.8,-276.1 		"/>
	</g>
</g>
<g id="Layer_13">
	<g>
		<rect x="699" y="-287.2" class="st11" width="17" height="11.8"/>
		<polygon class="st11" points="909.7,-267.6 924.1,-272.8 925.1,-259.9 910.7,-255.5 		"/>
		<rect x="726.2" y="-183.3" class="st9" width="33.2" height="41.8"/>
		<polygon class="st15" points="698.4,-276.8 706.4,-257.3 713,-275.3 		"/>
		<polygon class="st10" points="863.7,-338.1 925.5,-259.1 907.3,-247.7 860.9,-293.3 		"/>
		<rect x="831.1" y="-183.3" class="st9" width="32.5" height="41.8"/>
		<polyline class="st10" points="726.2,-257.5 726.2,-338 705.8,-257.5 726.2,-257.5 726.2,-338 		"/>
		<path class="st12" d="M806.2-423.5c0-5.2-5.1-9.5-11.4-9.5s-11.4,4.3-11.4,9.5C790.4-423.7,798.1-423.7,806.2-423.5z"/>
		<g>
			<path class="st13" d="M843.8-381.3c0-23.5-19.2-42.7-42.7-42.7h-11.2c-23.5,0-42.7,19.2-42.7,42.7v43.3h96.7L843.8-381.3
				L843.8-381.3z"/>
			<rect x="726.2" y="-338" class="st14" width="137.7" height="154.8"/>
		</g>
	</g>
</g>
<g id="Layer_10">
	<g>
		<rect x="-207.6" y="-198" class="st9" width="33.2" height="41.8"/>
		<rect x="-102.7" y="-198" class="st9" width="32.5" height="41.8"/>
		<polygon class="st10" points="-207.6,-352.7 -240.8,-260 -207.6,-260 		"/>
		<polyline class="st10" points="-70.2,-260 -70.2,-352.7 -37.1,-260 		"/>
		<rect x="-66" y="-260" class="st11" width="18.8" height="10.7"/>
		<rect x="-232.8" y="-260.6" class="st11" width="18.8" height="10.7"/>
		<path class="st12" d="M-127.6-438.2c0-5.2-5.1-9.5-11.4-9.5s-11.4,4.3-11.4,9.5C-143.4-438.4-135.7-438.4-127.6-438.2z"/>
		<g>
			<path class="st13" d="M-90-396c0-23.5-19.2-42.7-42.7-42.7h-11.2c-23.5,0-42.7,19.2-42.7,42.7v43.3h96.7V-396H-90z"/>
			<rect x="-207.6" y="-352.7" class="st14" width="137.7" height="154.8"/>
		</g>
	</g>
</g>
<g id="Layer_11">
	<g>
		<rect x="26.9" y="-195" class="st9" width="33.2" height="41.8"/>
		<rect x="131.9" y="-195" class="st9" width="32.5" height="41.8"/>
		<polygon class="st10" points="26.9,-349.7 -6.3,-260.3 26.9,-260.3 		"/>
		
			<rect x="181.1" y="-261.5" transform="matrix(0.9981 -6.083981e-02 6.083981e-02 0.9981 15.9094 11.1342)" class="st11" width="19.4" height="11.6"/>
		<polyline class="st10" points="167.1,-260.1 164.6,-297.5 164.6,-349.7 202.7,-262.1 		"/>
		<rect x="-1.6" y="-260.3" class="st11" width="18.8" height="10.7"/>
		<path class="st12" d="M106.9-435.2c0-5.2-5.1-9.5-11.4-9.5s-11.4,4.3-11.4,9.5C91.1-435.4,98.9-435.4,106.9-435.2z"/>
		<g>
			<path class="st13" d="M144.5-393c0-23.5-19.2-42.7-42.7-42.7H90.7C67.2-435.7,48-416.5,48-393v43.3h96.7V-393H144.5z"/>
			<rect x="26.9" y="-349.7" class="st14" width="137.7" height="154.8"/>
		</g>
	</g>
</g>
<g id="Layer_12">
	<g>
		<rect x="244.6" y="-199.2" class="st9" width="33.2" height="41.8"/>
		<rect x="349.5" y="-199.2" class="st9" width="32.5" height="41.8"/>
		
			<rect x="425.6" y="-276.4" transform="matrix(0.3367 -0.9416 0.9416 0.3367 537.239 229.265)" class="st11" width="11.6" height="19.4"/>
		
			<rect x="217.2" y="-290" transform="matrix(0.2123 -0.9772 0.9772 0.2123 449.5358 -3.5999)" class="st11" width="10.7" height="18.8"/>
		<path class="st12" d="M324.6-439.4c0-5.2-5.1-9.5-11.4-9.5s-11.4,4.3-11.4,9.5C308.8-439.6,316.5-439.6,324.6-439.4z"/>
		<g>
			<path class="st13" d="M362.2-397.2c0-23.5-19.2-42.7-42.7-42.7h-11.2c-23.5,0-42.7,19.2-42.7,42.7v43.3h96.7L362.2-397.2
				L362.2-397.2z"/>
			<rect x="244.6" y="-353.9" class="st14" width="137.7" height="154.8"/>
		</g>
		<path class="st10" d="M382.3-353.9c0,0,33.6,7.9,46.6,49.1s-9.3,40.3-9.3,40.3S376-330.7,382.3-338V-353.9z"/>
		<path class="st10" d="M244.6-353.9c0,0-38.9,64.9-28.5,69.9s28.5,0,28.5,0V-353.9z"/>
	</g>
</g>
<g id="mouse">
	<path class="st5" d="M1427.9,893c0-4.2-4.9-7.6-10.9-7.6s-10.9,3.4-10.9,7.6s4.9,5.4,10.9,5.4S1427.9,897.2,1427.9,893z"/>
</g>
<g id="charmask">
	<g class="st16">
		<rect x="1226.2" y="974" class="st17" width="33.2" height="41.8"/>
		<rect x="1331.1" y="974" class="st17" width="32.5" height="41.8"/>
		<polygon class="st17" points="1226.2,819.3 1193,921.6 1226.2,921.6 		"/>
		<polyline class="st17" points="1363.6,921.6 1363.6,819.3 1396.7,921.6 		"/>
		<rect x="1367.8" y="921.6" class="st17" width="18.8" height="11.8"/>
		<rect x="1201" y="920.9" class="st17" width="18.8" height="11.8"/>
		<path class="st17" d="M1306.2,733.8c0-5.2-5.1-9.5-11.4-9.5s-11.4,4.3-11.4,9.5C1290.4,733.6,1298.1,733.6,1306.2,733.8z"/>
		<g>
			<path class="st18" d="M1343.8,776c0-23.5-19.2-42.7-42.7-42.7h-11.2c-23.5,0-42.7,19.2-42.7,42.7v43.3h96.7V776H1343.8z"/>
			<rect x="1226.2" y="819.3" class="st18" width="137.7" height="154.8"/>
		</g>
	</g>
</g>
<g id="firefly" class="st19">
	<g class="st20">
		<g>
			<circle class="st21" cx="447.2" cy="621.7" r="383.1"/>
		</g>
	</g>
	<g class="st22">
		<g>
			<circle class="st21" cx="446.9" cy="621.7" r="129.8"/>
		</g>
	</g>
	<g class="st23">
		<g>
			<circle class="st21" cx="447.2" cy="621.7" r="34.3"/>
		</g>
	</g>
	<path class="st24" d="M449.6,621.2c-0.7,1.1-1.1,2.4-2.4,2.4s-1.9-1.2-2.4-2.4C443.6,618.8,450.6,619.6,449.6,621.2z"/>
</g>
<g id="chair">
	<g>
		<path class="st3" d="M1348.1,938.4H1232c-3.6,0-6.5-2.5-6.5-5.6l12.8-109.7c0-3.1,2.9-5.6,6.5-5.6h89.8c3.6,0,6.5,2.5,6.5,5.6
			l13.6,109.7C1354.6,935.9,1351.7,938.4,1348.1,938.4z"/>
		<path class="st3" d="M1343.8,980.1h-107.9c-3.1,0-5.6-2.5-5.6-5.6l-9.8-16.1c0-3.1,2.5-5.6,5.6-5.6l128-1.6c3.1,0,5.6,2.5,5.6,5.6
			l-10.3,17.8C1349.4,977.6,1346.9,980.1,1343.8,980.1z"/>
		<rect x="1280.2" y="980.1" class="st25" width="19.6" height="4.7"/>
		<path class="st26" d="M1290,982.3L1290,982.3c-5.4,0-9.8-4.4-9.8-9.8v-58.9c0-5.4,4.4-9.8,9.8-9.8l0,0c5.4,0,9.8,4.4,9.8,9.8v58.9
			C1299.9,977.9,1295.4,982.3,1290,982.3z"/>
		<path class="st27" d="M1226.4,1066.4l53.7-18.9c3.7-1.3,5.9-4.7,4.9-7.6l0,0c-1-2.9-5.3-2.1-9-0.8l-52,19.3
			c-3.7,1.3-7.2,2.2-6.2,5.1l0,0C1218.9,1066.3,1222.7,1067.7,1226.4,1066.4z"/>
		<path class="st27" d="M1353.7,1066.4l-53.7-18.9c-3.7-1.3-5.9-4.7-4.9-7.6l0,0c1-2.9,5.3-2.1,9-0.8l52,19.3
			c3.7,1.3,7.2,2.2,6.2,5.1l0,0C1361.2,1066.3,1357.4,1067.7,1353.7,1066.4z"/>
		<rect x="1285.3" y="984.8" class="st27" width="9.6" height="48.6"/>
		<path class="st26" d="M1290,1052.3L1290,1052.3c-3.8,0-7-3.1-7-7v-32.2c0-3.8,3.1-7,7-7l0,0c3.8,0,7,3.1,7,7v32.2
			C1297,1049.2,1293.9,1052.3,1290,1052.3z"/>
		<rect x="1286.4" y="1039.6" class="st27" width="7.3" height="27.4"/>
		<path class="st26" d="M1290,1068.9L1290,1068.9c-3.8,0-6.9,3.1-6.9,6.9l0,0c0,3.8,3.1,6.9,6.9,6.9l0,0c3.8,0,6.9-3.1,6.9-6.9l0,0
			C1297,1072,1293.9,1068.9,1290,1068.9z"/>
		<path class="st26" d="M1215.1,1066.3L1215.1,1066.3c-3.8,0-6.9,3.1-6.9,6.9l0,0c0,3.8,3.1,6.9,6.9,6.9l0,0c3.8,0,6.9-3.1,6.9-6.9
			l0,0C1222.1,1069.4,1218.9,1066.3,1215.1,1066.3z"/>
		<path class="st26" d="M1366.6,1066.3L1366.6,1066.3c-3.8,0-6.9,3.1-6.9,6.9l0,0c0,3.8,3.1,6.9,6.9,6.9l0,0c3.8,0,6.9-3.1,6.9-6.9
			l0,0C1373.5,1069.4,1370.4,1066.3,1366.6,1066.3z"/>
		<rect x="1360.3" y="1064.1" class="st25" width="4.3" height="4.3"/>
		<rect x="1287.9" y="1065.7" class="st25" width="4.3" height="4.3"/>
		<rect x="1216.1" y="1063.5" class="st25" width="4.3" height="4.3"/>
	</g>
</g>
<g id="Layer_1_1_">
	<title>cave</title>
	<g id="Layer_2">
		<path class="st3" d="M-11,182c0,0,39,13.1,47,92.8c0,0,7,22.6,15,38.4v39.4c0,0,7.5,1.9,7,14.4s7-45.2,7-45.2s10-14.9,16-13.4
			s11-116.3,11-116.3s13.5,3.4,11-29.8l0.3-29.8c0,0,39.2-2.4,39.7,43.2c0,0,9.5,15.9,38,34.6c0,0,54,141.7,51,199.9
			c0,0,11-47.1,14-79.8c0,0,27.5-39.4,25-78.8c0,0,30.5-7.7,47-37.5c0,0,16-38.4,13-56.7l10-1.9l15-23.1c0,0,9.5-8.2,10,0
			s0,37.5,0,37.5s-28.5,30.8-20,38.4c0,0,9.5,31.7,26,37.5v40.4c0,0,12.5,17.3,15,21.1s-6.5,9.1-10,8.6s10.4,188.3,10.4,188.3
			l20.6-99.9c8.5,1,6-68.2,6-68.2s7-4.8,12-62.5c8.2-15.6,14.6-32,19-49c0,0,8-38,16-52.9c0,0,9.5-8.2,20-34.6c0,0,23.5-12,44-39.4
			l5-18.3c0,0,67-36.5,74-52.8c0,0,88,17.3,104,8.7c0,0,30,25,47,27.9c0,0,3.5,15.4,28,29.8s70.5,130.7,93,122s84-117,84-117
			l24,99.9c0,0,19-107.6,22-101.8s58-69.2,65-69.2h93c0,0-4.5,20.7,0,25s13,24,16,42.3s6,34.6,6,34.6s-17.5,0-7,15.4s4,33.1,7,29.8
			s7,156.6,7,156.6s8.5,58.6,17,60.5v119.1c0,0,9.5,32.2,5,36.5s16-59.6,16-59.6v-82.6c0,0,11,14.4,10-66.3c0,0,33-86.5,24-165.3
			c0,0-15-11,12-41.3c0,0,19.5-6.7,19-55.7c0,0,27.5-31.7,33-49l85,4.8c0,0-2.5,87.9,23,105.7c0,0,5.5,52.9,14,51.9s36,11.5,36,11.5
			s16-40.8,34-1.9s10,98,10,98s16.5,12.5,16,23.1s-6.5,84.1,5,78.8s20-50,20-50l19-21.1l5-13.5c0,0,28.5-35.1,46-37.5
			c0,0,9.5-55.3,48-62.5c0,0,49-16.3,57-28.8v-15.3c0,0,46.5,5.8,47,13.4s15,19.7,11,24s-8.5,27.9,5,42.3s5,42.3,5,42.3
			s79-89.8,89-89.4c5.9,0.3,11.7-1.8,16-5.8l10.5-203H-11V182z"/>
		<path class="st3" d="M27.4,228.8c0,0,48.6,804.1,174.6,761.7s68-160.2,84-173.8s32-46.3,32-46.3v-54.1c0,0,20,310.8,60,297.3
			s73,85.5,121,60.4s139-35.3,211-14.1s282.5,13.1,282.5,13.1s437.5-1.5,457.5-44s140-65.6,140-65.6s78-46.3,120-3.9
			s20,73.4,20,73.4s92,48.3,120,7.7s72-752.9,54-836.9s22-230.2,22-230.2V1090l-1937,6.5V4.5L27.4,228.8z"/>
	</g>
</g>
</svg>
