<svg id="Layer_1" data-name="Layer 1" xmlns="http://www.w3.org/2000/svg" viewBox="0 0 1920 1123"><defs><style>.cls-1{fill:#292947;}.cls-2{fill:#b2bad8;}.cls-3{fill:#090b19;}.cls-4{font-size:6.9px;}.cls-11,.cls-4,.cls-41{fill:#fff;font-family:VisitorTT2BRK, Visitor TT2 BRK;}.cls-5{fill:#e5e5e5;}.cls-6{fill:#19193f;}.cls-7{fill:#11112d;}.cls-8{fill:#0c0c21;}.cls-9{fill:#a9dbc8;}.cls-10{fill:#1c110a;}.cls-11{font-size:11.49px;}.cls-12{fill:#114b5f;}.cls-13{fill:#62a87c;}.cls-14{fill:#c6dabf;}.cls-15{fill:#f2f0f0;}.cls-16{fill:#1a936f;}.cls-17{fill:#50a2a7;}.cls-18{fill:#3b9696;}.cls-19{fill:#e4d6a7;}.cls-20{fill:#ea7b54;}.cls-21{fill:#91b4ce;}.cls-22{fill:#5e9670;}.cls-23{fill:#bfbfbf;}.cls-24{fill:#e06c77;}.cls-25{fill:#75a0ba;}.cls-26{fill:#a8dadc;}.cls-27,.cls-33{fill:#457b9d;}.cls-28{fill:#5592aa;}.cls-29{fill:#264060;}.cls-30{fill:#304c6a;}.cls-31{fill:#1d3557;}.cls-32{fill:#c6e2ee;}.cls-33{opacity:0.72;}.cls-34{fill:#307699;}.cls-35{fill:#f1faee;}.cls-36{fill:#24416b;}.cls-37{fill:#219b9b;}.cls-38{fill:#5b55d8;}.cls-39{fill:#dddbdb;}.cls-40{fill:#dd5858;}.cls-41{font-size:36px;}</style></defs><title>collage</title><rect class="cls-1" x="-0.15" y="0.42" width="960" height="560"/><rect class="cls-2" x="400.45" y="64.1" width="234.58" height="123.48" rx="6.1" ry="6.1"/><rect class="cls-3" x="404.64" y="68.64" width="226.55" height="114.58"/><text class="cls-4" transform="translate(407.61 180.19)">&gt;//Roko’s_Basillisk.exe</text><path class="cls-5" d="M468.21,112.43c.28.39,0,17.94,0,17.94h6.66V112.43Z"/><path class="cls-5" d="M571.42,112.43c.28.39,0,17.94,0,17.94h6.66V112.43Z"/><rect class="cls-5" x="488.8" y="137.98" width="62.4" height="5.28"/><rect class="cls-5" x="551.2" y="129.91" width="6.83" height="13.35"/><rect class="cls-5" x="488.8" y="131.77" width="7.14" height="11.5"/><rect class="cls-6" x="131.44" y="227.69" width="66.51" height="93.6" rx="29.41" ry="29.41"/><ellipse class="cls-6" cx="165.27" cy="223.64" rx="7.83" ry="6.54"/><rect class="cls-6" x="803.01" y="212.42" width="66.51" height="93.6" rx="29.41" ry="29.41"/><ellipse class="cls-6" cx="836.83" cy="208.38" rx="7.83" ry="6.54"/><rect class="cls-6" x="788.6" y="271.61" width="94.76" height="70.41"/><polygon class="cls-6" points="788.6 271.61 765.79 342.02 788.6 342.02 788.6 271.61"/><polyline class="cls-6" points="883.18 342.02 883.18 271.61 905.98 342.02"/><rect class="cls-6" x="117.03" y="286.88" width="94.76" height="70.41"/><rect class="cls-6" x="815.95" y="350.78" width="58.45" height="22.5" transform="translate(1690.35 724.05) rotate(-180)"/><rect class="cls-6" x="770.71" y="350.78" width="15.34" height="9.64" transform="translate(1556.76 711.2) rotate(-180)"/><rect class="cls-6" x="906.64" y="350.23" width="15.34" height="9.64" transform="translate(1828.62 710.11) rotate(-180)"/><rect class="cls-6" x="687.87" y="209.84" width="78.77" height="110.85" rx="34.83" ry="34.83" transform="translate(1454.51 530.53) rotate(180)"/><ellipse class="cls-6" cx="726.58" cy="205.04" rx="9.27" ry="7.75"/><rect class="cls-6" x="671.48" y="279.93" width="112.22" height="83.39" transform="translate(1455.19 643.25) rotate(-180)"/><polygon class="cls-6" points="783.71 279.93 810.71 363.32 783.71 363.32 783.71 279.93"/><polyline class="cls-6" points="671.69 363.32 671.69 279.93 644.69 363.32"/><rect class="cls-6" x="698.17" y="363.32" width="58.45" height="22.5" transform="translate(1454.79 749.13) rotate(-180)"/><rect class="cls-6" x="652.94" y="363.32" width="15.34" height="9.64" transform="translate(1321.21 736.28) rotate(-180)"/><rect class="cls-6" x="788.87" y="362.77" width="15.34" height="9.64" transform="translate(1593.07 735.19) rotate(-180)"/><rect class="cls-6" x="581.76" y="193.8" width="78.77" height="110.85" rx="34.83" ry="34.83" transform="translate(1242.28 498.45) rotate(180)"/><ellipse class="cls-6" cx="620.47" cy="189.01" rx="9.27" ry="7.75"/><rect class="cls-6" x="565.37" y="263.89" width="112.22" height="83.39" transform="translate(1242.96 611.17) rotate(-180)"/><polygon class="cls-6" points="677.59 263.89 704.6 347.28 677.59 347.28 677.59 263.89"/><polyline class="cls-6" points="565.58 347.28 565.58 263.89 538.58 347.28"/><rect class="cls-6" x="592.06" y="347.28" width="58.45" height="22.5" transform="translate(1242.57 717.06) rotate(-180)"/><rect class="cls-6" x="546.82" y="347.28" width="15.34" height="9.64" transform="translate(1108.99 704.2) rotate(-180)"/><rect class="cls-6" x="682.76" y="346.74" width="15.34" height="9.64" transform="translate(1380.85 703.12) rotate(-180)"/><rect class="cls-6" x="464.39" y="211.81" width="78.77" height="110.85" rx="34.83" ry="34.83" transform="translate(1007.55 534.46) rotate(180)"/><ellipse class="cls-6" cx="503.1" cy="207.01" rx="9.27" ry="7.75"/><rect class="cls-6" x="448" y="281.9" width="112.22" height="83.39" transform="translate(1008.23 647.18) rotate(-180)"/><polygon class="cls-6" points="560.23 281.9 587.23 365.28 560.23 365.28 560.23 281.9"/><polyline class="cls-6" points="448.22 365.28 448.22 281.9 421.22 365.28"/><rect class="cls-6" x="474.69" y="365.28" width="58.45" height="22.5" transform="translate(1007.84 753.07) rotate(-180)"/><rect class="cls-6" x="429.46" y="365.28" width="15.34" height="9.64" transform="translate(874.26 740.21) rotate(-180)"/><rect class="cls-6" x="565.39" y="364.74" width="15.34" height="9.64" transform="translate(1146.12 739.13) rotate(-180)"/><rect class="cls-6" x="332.5" y="195.77" width="78.77" height="110.85" rx="34.83" ry="34.83" transform="translate(743.77 502.39) rotate(180)"/><ellipse class="cls-6" cx="371.21" cy="190.97" rx="9.27" ry="7.75"/><rect class="cls-6" x="316.11" y="265.86" width="112.22" height="83.39" transform="translate(744.44 615.11) rotate(-180)"/><polygon class="cls-6" points="428.33 265.86 455.34 349.25 428.33 349.25 428.33 265.86"/><polyline class="cls-6" points="316.32 349.25 316.32 265.86 289.32 349.25"/><rect class="cls-6" x="342.8" y="349.25" width="58.45" height="22.5" transform="translate(744.05 720.99) rotate(-180)"/><rect class="cls-6" x="297.57" y="349.25" width="15.34" height="9.64" transform="translate(610.47 708.13) rotate(-180)"/><rect class="cls-6" x="433.5" y="348.7" width="15.34" height="9.64" transform="translate(882.33 707.05) rotate(-180)"/><rect class="cls-6" x="219.96" y="187.58" width="78.77" height="110.85" rx="34.83" ry="34.83" transform="translate(518.69 486) rotate(180)"/><rect class="cls-6" x="203.57" y="257.67" width="112.22" height="83.39" transform="translate(519.37 598.72) rotate(-180)"/><polygon class="cls-6" points="315.8 257.67 342.8 341.05 315.8 341.05 315.8 257.67"/><polyline class="cls-6" points="203.78 341.05 203.78 257.67 176.78 341.05"/><rect class="cls-6" x="230.26" y="341.05" width="58.45" height="22.5" transform="translate(518.98 704.61) rotate(-180)"/><rect class="cls-6" x="185.03" y="341.05" width="15.34" height="9.64" transform="translate(385.39 691.75) rotate(-180)"/><rect class="cls-6" x="320.96" y="340.51" width="15.34" height="9.64" transform="translate(657.25 690.67) rotate(-180)"/><polygon class="cls-6" points="210.38 259.64 237.38 343.02 210.38 343.02 210.38 259.64"/><rect class="cls-6" x="215.54" y="342.48" width="15.34" height="9.64" transform="translate(446.41 694.6) rotate(-180)"/><rect class="cls-6" x="128.91" y="340.51" width="812.51" height="83.88"/><rect class="cls-6" x="182.14" y="353.69" width="16.06" height="10.1" transform="translate(380.34 717.47) rotate(-180)"/><rect class="cls-6" x="631.01" y="266.61" width="82.49" height="80.13" rx="30.31" ry="30.31" transform="translate(1344.51 613.34) rotate(-180)"/><rect class="cls-6" x="406.76" y="244.81" width="82.49" height="116.09" rx="36.48" ry="36.48" transform="translate(896.01 605.7) rotate(180)"/><ellipse class="cls-6" cx="447.3" cy="239.79" rx="9.71" ry="8.11"/><ellipse class="cls-6" cx="671.55" cy="261.58" rx="9.71" ry="8.11"/><ellipse class="cls-6" cx="262.43" cy="183.23" rx="9.27" ry="7.75"/><rect class="cls-7" x="66.51" y="256.56" width="88.87" height="125.06" rx="39.3" ry="39.3"/><ellipse class="cls-7" cx="111.7" cy="251.15" rx="10.46" ry="8.74"/><rect class="cls-7" x="47.25" y="335.64" width="126.61" height="94.08"/><polygon class="cls-7" points="47.25 335.64 16.78 429.72 47.25 429.72 47.25 335.64"/><polyline class="cls-7" points="173.62 429.72 173.62 335.64 204.09 429.72"/><rect class="cls-7" x="77.81" y="429.72" width="65.94" height="25.39"/><rect class="cls-7" x="177.48" y="429.72" width="17.3" height="10.88"/><rect class="cls-7" x="24.12" y="429.1" width="17.3" height="10.88"/><rect class="cls-7" x="199.38" y="270.71" width="88.87" height="125.06" rx="39.3" ry="39.3"/><ellipse class="cls-7" cx="244.58" cy="265.3" rx="10.46" ry="8.74"/><rect class="cls-7" x="180.13" y="349.79" width="126.61" height="94.08"/><polygon class="cls-7" points="180.13 349.79 149.66 443.86 180.13 443.86 180.13 349.79"/><polyline class="cls-7" points="306.5 443.86 306.5 349.79 336.96 443.86"/><rect class="cls-7" x="210.68" y="443.86" width="65.94" height="25.39"/><rect class="cls-7" x="310.36" y="443.86" width="17.3" height="10.88"/><rect class="cls-7" x="157" y="443.25" width="17.3" height="10.88"/><rect class="cls-7" x="319.1" y="252.61" width="88.87" height="125.06" rx="39.3" ry="39.3"/><ellipse class="cls-7" cx="364.29" cy="247.2" rx="10.46" ry="8.74"/><rect class="cls-7" x="299.85" y="331.69" width="126.61" height="94.08"/><polygon class="cls-7" points="299.85 331.69 269.38 425.77 299.85 425.77 299.85 331.69"/><polyline class="cls-7" points="426.22 425.77 426.22 331.69 456.68 425.77"/><rect class="cls-7" x="330.4" y="425.77" width="65.94" height="25.39"/><rect class="cls-7" x="430.08" y="425.77" width="17.3" height="10.88"/><rect class="cls-7" x="276.72" y="425.16" width="17.3" height="10.88"/><rect class="cls-7" x="451.51" y="272.93" width="88.87" height="125.06" rx="39.3" ry="39.3"/><ellipse class="cls-7" cx="496.71" cy="267.52" rx="10.46" ry="8.74"/><rect class="cls-7" x="432.26" y="352.01" width="126.61" height="94.08"/><polygon class="cls-7" points="432.26 352.01 401.79 446.08 432.26 446.08 432.26 352.01"/><polyline class="cls-7" points="558.63 446.08 558.63 352.01 589.09 446.08"/><rect class="cls-7" x="462.81" y="446.08" width="65.94" height="25.39"/><rect class="cls-7" x="562.49" y="446.08" width="17.3" height="10.88"/><rect class="cls-7" x="409.13" y="445.47" width="17.3" height="10.88"/><rect class="cls-7" x="600.32" y="254.83" width="88.87" height="125.06" rx="39.3" ry="39.3"/><ellipse class="cls-7" cx="645.51" cy="249.42" rx="10.46" ry="8.74"/><rect class="cls-7" x="581.06" y="333.91" width="126.61" height="94.08"/><polygon class="cls-7" points="581.06 333.91 550.6 427.99 581.06 427.99 581.06 333.91"/><polyline class="cls-7" points="707.44 427.99 707.44 333.91 737.9 427.99"/><rect class="cls-7" x="611.62" y="427.99" width="65.94" height="25.39"/><rect class="cls-7" x="711.3" y="427.99" width="17.3" height="10.88"/><rect class="cls-7" x="557.94" y="427.38" width="17.3" height="10.88"/><rect class="cls-7" x="727.29" y="245.59" width="88.87" height="125.06" rx="39.3" ry="39.3"/><ellipse class="cls-7" cx="772.48" cy="240.18" rx="10.46" ry="8.74"/><rect class="cls-7" x="708.03" y="324.67" width="126.61" height="94.08"/><polygon class="cls-7" points="708.03 324.67 677.56 418.75 708.03 418.75 708.03 324.67"/><polyline class="cls-7" points="834.4 418.75 834.4 324.67 864.87 418.75"/><rect class="cls-7" x="738.59" y="418.75" width="65.94" height="25.39"/><rect class="cls-7" x="838.26" y="418.75" width="17.3" height="10.88"/><rect class="cls-7" x="684.9" y="418.14" width="17.3" height="10.88"/><ellipse class="cls-7" cx="891.42" cy="242.4" rx="10.46" ry="8.74"/><rect class="cls-7" x="826.97" y="326.89" width="91.91" height="94.08"/><polygon class="cls-7" points="826.97 326.89 796.5 420.97 826.97 420.97 826.97 326.89"/><rect class="cls-7" x="803.84" y="420.36" width="17.3" height="10.88"/><rect class="cls-7" x="2.19" y="418.14" width="916.69" height="94.64"/><path class="cls-7" d="M918.88,255.37a39,39,0,0,0-23.08-7.56H885.52a39.41,39.41,0,0,0-39.3,39.3v46.47a39.41,39.41,0,0,0,39.3,39.3h10.27a39,39,0,0,0,23.08-7.56Z"/><ellipse class="cls-7" cx="932.42" cy="246.64" rx="10.95" ry="9.15"/><rect class="cls-7" x="864.92" y="335.12" width="94.92" height="98.52"/><polygon class="cls-7" points="864.92 335.12 833.02 433.64 864.92 433.64 864.92 335.12"/><rect class="cls-7" x="864.92" y="433.64" width="32" height="90.77"/><rect class="cls-7" x="840.7" y="433" width="18.12" height="11.39"/><path class="cls-7" d="M959.85,259.28a40.85,40.85,0,0,0-22.85-7H926.24a41.28,41.28,0,0,0-41.15,41.15v48.66a41.28,41.28,0,0,0,41.15,41.15H937a40.85,40.85,0,0,0,22.85-7Z"/><rect class="cls-7" x="259.33" y="334.75" width="93.06" height="90.41" rx="34.19" ry="34.19"/><rect class="cls-7" x="512.34" y="310.16" width="93.06" height="130.97" rx="41.15" ry="41.15"/><ellipse class="cls-7" cx="559.67" cy="304.5" rx="10.95" ry="9.15"/><rect class="cls-7" x="-0.53" y="314.06" width="93.06" height="130.97" rx="41.15" ry="41.15"/><ellipse class="cls-7" cx="46.33" cy="310.05" rx="10.95" ry="9.15"/><ellipse class="cls-7" cx="306.66" cy="329.09" rx="10.95" ry="9.15"/><rect class="cls-8" x="67.21" y="335.57" width="93.06" height="130.97" rx="41.15" ry="41.15"/><ellipse class="cls-8" cx="114.54" cy="329.91" rx="10.95" ry="9.15"/><rect class="cls-8" x="47.04" y="418.39" width="132.6" height="98.52"/><polygon class="cls-8" points="47.04 418.39 15.13 516.91 47.04 516.91 47.04 418.39"/><polyline class="cls-8" points="179.38 516.91 179.38 418.39 211.29 516.91"/><rect class="cls-8" x="79.04" y="516.91" width="69.06" height="26.58"/><rect class="cls-8" x="183.43" y="516.91" width="18.12" height="11.39"/><rect class="cls-8" x="22.82" y="516.27" width="18.12" height="11.39"/><rect class="cls-8" x="206.36" y="350.39" width="93.06" height="130.97" rx="41.15" ry="41.15"/><ellipse class="cls-8" cx="253.69" cy="344.72" rx="10.95" ry="9.15"/><rect class="cls-8" x="186.2" y="433.2" width="132.6" height="98.52"/><polygon class="cls-8" points="186.2 433.2 154.29 531.73 186.2 531.73 186.2 433.2"/><polyline class="cls-8" points="318.54 531.73 318.54 433.2 350.44 531.73"/><rect class="cls-8" x="218.2" y="531.72" width="69.06" height="26.58"/><rect class="cls-8" x="322.58" y="531.72" width="18.12" height="11.39"/><rect class="cls-8" x="161.98" y="531.08" width="18.12" height="11.39"/><rect class="cls-8" x="331.74" y="331.44" width="93.06" height="130.97" rx="41.15" ry="41.15"/><ellipse class="cls-8" cx="379.07" cy="325.77" rx="10.95" ry="9.15"/><rect class="cls-8" x="311.57" y="414.25" width="132.6" height="98.52"/><polygon class="cls-8" points="311.57 414.25 279.67 512.78 311.57 512.78 311.57 414.25"/><polyline class="cls-8" points="443.92 512.78 443.92 414.25 475.82 512.78"/><rect class="cls-8" x="343.57" y="512.78" width="69.06" height="26.58"/><rect class="cls-8" x="447.96" y="512.78" width="18.12" height="11.39"/><rect class="cls-8" x="287.35" y="512.13" width="18.12" height="11.39"/><rect class="cls-8" x="470.41" y="352.71" width="93.06" height="130.97" rx="41.15" ry="41.15"/><ellipse class="cls-8" cx="517.74" cy="347.05" rx="10.95" ry="9.15"/><rect class="cls-8" x="450.24" y="435.53" width="132.6" height="98.52"/><polygon class="cls-8" points="450.24 435.53 418.33 534.05 450.24 534.05 450.24 435.53"/><polyline class="cls-8" points="582.58 534.05 582.58 435.53 614.49 534.05"/><rect class="cls-8" x="482.24" y="534.05" width="69.06" height="26.58"/><rect class="cls-8" x="586.63" y="534.05" width="18.12" height="11.39"/><rect class="cls-8" x="426.02" y="533.41" width="18.12" height="11.39"/><rect class="cls-8" x="626.24" y="333.76" width="93.06" height="130.97" rx="41.15" ry="41.15"/><ellipse class="cls-8" cx="673.57" cy="328.1" rx="10.95" ry="9.15"/><rect class="cls-8" x="606.08" y="416.58" width="132.6" height="98.52"/><polygon class="cls-8" points="606.08 416.58 574.17 515.1 606.08 515.1 606.08 416.58"/><polyline class="cls-8" points="738.42 515.1 738.42 416.58 770.32 515.1"/><rect class="cls-8" x="638.08" y="515.1" width="69.06" height="26.58"/><rect class="cls-8" x="742.46" y="515.1" width="18.12" height="11.39"/><rect class="cls-8" x="581.86" y="514.46" width="18.12" height="11.39"/><rect class="cls-8" x="759.21" y="324.08" width="93.06" height="130.97" rx="41.15" ry="41.15"/><ellipse class="cls-8" cx="806.54" cy="318.42" rx="10.95" ry="9.15"/><rect class="cls-8" x="739.04" y="406.9" width="132.6" height="98.52"/><polygon class="cls-8" points="739.04 406.9 707.14 505.42 739.04 505.42 739.04 406.9"/><polyline class="cls-8" points="871.39 505.42 871.39 406.9 903.29 505.42"/><rect class="cls-8" x="771.04" y="505.42" width="69.06" height="26.58"/><rect class="cls-8" x="875.43" y="505.42" width="18.12" height="11.39"/><rect class="cls-8" x="714.82" y="504.78" width="18.12" height="11.39"/><ellipse class="cls-8" cx="931.09" cy="320.74" rx="10.95" ry="9.15"/><rect class="cls-8" x="863.6" y="409.22" width="96.25" height="98.52"/><polygon class="cls-8" points="863.6 409.23 831.69 507.75 863.6 507.75 863.6 409.23"/><rect class="cls-8" x="839.38" y="507.11" width="18.12" height="11.39"/><rect class="cls-8" x="-0.15" y="504.78" width="960.15" height="58.22"/><path class="cls-8" d="M959.85,334.32a40.87,40.87,0,0,0-24.17-7.91H924.92a41.28,41.28,0,0,0-41.15,41.15v48.66a41.28,41.28,0,0,0,41.15,41.15h10.76a40.87,40.87,0,0,0,24.17-7.91Z"/><polygon class="cls-9" points="1920 560 960 560 959.85 0.42 1920 0 1920 560"/><rect class="cls-5" x="1000" y="47.85" width="390.57" height="205.59" rx="10.16" ry="10.16"/><rect class="cls-10" x="1006.99" y="55.41" width="377.2" height="190.77"/><text class="cls-11" transform="translate(1011.94 241.14)">&gt;//Roko’s_Basillisk.exe</text><path class="cls-5" d="M1112.83,128.31c.46.65,0,29.87,0,29.87h11.09V128.31Z"/><path class="cls-5" d="M1284.66,128.31c.46.65,0,29.87,0,29.87h11.09V128.31Z"/><rect class="cls-5" x="1147.11" y="170.87" width="103.9" height="8.79"/><rect class="cls-5" x="1251" y="157.43" width="11.37" height="22.23"/><rect class="cls-5" x="1147.11" y="160.51" width="11.89" height="19.14"/><rect class="cls-12" x="1522.47" y="396" width="340.53" height="9" rx="3.66" ry="3.66"/><rect class="cls-12" x="1524.62" y="351.33" width="5.95" height="112.67" rx="2.98" ry="2.98"/><rect class="cls-12" x="979.67" y="325.83" width="14.67" height="140.34" rx="7.27" ry="7.27" transform="translate(1974.02 792) rotate(180)"/><rect class="cls-12" x="1841" y="320" width="15" height="146" rx="7.5" ry="7.5"/><rect class="cls-13" x="1530.57" y="368.67" width="317.88" height="27.33"/><rect class="cls-14" x="1530.57" y="368.67" width="6.12" height="27.33"/><rect class="cls-14" x="1763.67" y="333.33" width="77.33" height="35.33" rx="12.48" ry="12.48"/><rect class="cls-15" x="1669.87" y="290.9" width="42.95" height="106.23" transform="translate(2035.36 -1347.32) rotate(90)"/><path class="cls-16" d="M1734.67,405.81s-53.26-8.82-53.81-5.75-58.81,11.5-63.8,5.75-40.5-2.22-40.5-2.22,6.1-78.31,2.77-89.05,20.42,16.11,20.42,16.11L1688.34,312l36.06,6.37S1723.29,374.36,1734.67,405.81Z"/><rect class="cls-17" x="1739.12" y="303.2" width="54.41" height="76.58" rx="24.06" ry="24.06" transform="translate(2107.81 -1424.83) rotate(90)"/><ellipse class="cls-18" cx="1807.92" cy="341.96" rx="5.35" ry="6.4"/><path class="cls-19" d="M1762.17,339.08V314.29h21v24.79a5.85,5.85,0,0,1-5.83,5.83H1768A5.85,5.85,0,0,1,1762.17,339.08Z"/><circle cx="1773.51" cy="333.6" r="7.77"/><rect class="cls-20" x="1752.92" y="300.78" width="17.32" height="28.8" rx="6.59" ry="6.59" transform="translate(2076.77 -1446.4) rotate(90)"/><polygon class="cls-21" points="1848.5 254.08 1879.25 254.08 1879.25 288.85 1872.4 301.27 1855.71 301.27 1848.5 289.42 1848.5 254.08"/><rect class="cls-19" x="1653.93" y="339.73" width="16.5" height="10.38" transform="translate(2007.09 -1317.27) rotate(90)"/><path class="cls-21" d="M1862.75,301.27V454.5S1503,481.67,1670.15,348l-2.78-1.7S1483,476,1862.75,458c0,0,4.38,1,3-10.25l-1-146.48Z"/><rect class="cls-22" x="960" y="464" width="959.41" height="99"/><polygon class="cls-23" points="1729.15 336.3 1667.37 332.94 1667.37 356.89 1729.15 352.84 1729.15 336.3"/><path class="cls-12" d="M1905,464V226h-49v27.43s7.5,12.43,14,0V241.14h24V464Z"/><path class="cls-21" d="M1390.57,168.54S1898,142.5,1896,226h-3.5s20.83-75.67-501.93-53.67"/><path class="cls-24" d="M1389.24,170s507.82-27.43,505.82,56.07l-1.48,0c.19.11,28.42-77.53-504.64-54.63"/><polygon class="cls-25" points="1850 267.75 1876.75 267.75 1876.75 288.5 1871 299.25 1857 299.25 1850 289 1850 267.75"/><rect class="cls-12" x="972.83" y="398.88" width="333.05" height="8.65" rx="3.55" ry="3.55" transform="translate(2278.71 806.42) rotate(-180)"/><rect class="cls-12" x="1297.96" y="355.95" width="5.82" height="108.3" rx="2.89" ry="2.89" transform="translate(2601.73 820.2) rotate(180)"/><rect class="cls-13" x="987.06" y="372.61" width="310.9" height="26.27"/><rect class="cls-14" x="1291.97" y="372.61" width="5.98" height="26.27"/><rect class="cls-14" x="994.35" y="337.42" width="77.33" height="35.33" rx="12.48" ry="12.48"/><rect class="cls-16" x="1192.17" y="370.5" width="98.33" height="46" rx="3.04" ry="3.04"/><polyline class="cls-26" points="4.97 1123 964.97 1123 959.42 563 -0.58 563"/><rect class="cls-27" x="-0.28" y="563" width="960.28" height="172"/><rect class="cls-28" x="247.78" y="572" width="228.03" height="151.67" rx="12" ry="12"/><rect class="cls-27" x="4.97" y="1101" width="960" height="22"/><rect class="cls-29" x="691.77" y="921.91" width="228.73" height="179.09" rx="13.1" ry="13.1"/><rect class="cls-30" x="700" y="935" width="210" height="76.46"/><rect class="cls-30" x="700" y="1018" width="210" height="76.46"/><rect class="cls-31" x="111.85" y="945" width="731.15" height="24" rx="12" ry="12"/><rect class="cls-31" x="126.75" y="957" width="704.25" height="166"/><rect class="cls-28" x="482" y="572" width="228.03" height="151.67" rx="12" ry="12"/><rect class="cls-32" x="487.94" y="580.52" width="215.67" height="135.9"/><rect class="cls-27" x="593.94" y="702.67" width="3.67" height="15.33" transform="translate(1306.11 114.56) rotate(90)"/><path class="cls-33" d="M597.07,863.15v73.62A8.26,8.26,0,0,0,605.3,945h0a8.26,8.26,0,0,0,8.23-8.23V863.15"/><path class="cls-33" d="M619.7,863.15v73.62a8.26,8.26,0,0,0,8.23,8.23h0a8.26,8.26,0,0,0,8.23-8.23V863.15"/><path class="cls-33" d="M642.67,863.15v73.62A8.26,8.26,0,0,0,650.9,945h0a8.26,8.26,0,0,0,8.23-8.23V863.15"/><rect class="cls-27" x="589.29" y="870.58" width="77.16" height="9.69"/><rect class="cls-27" x="589.29" y="941.34" width="79.91" height="3.66" rx="1.12" ry="1.12"/><rect class="cls-34" x="597.4" y="908.01" width="61.07" height="5.59" transform="translate(1538.74 282.87) rotate(90)"/><rect class="cls-32" x="254" y="580.52" width="215.67" height="135.9"/><ellipse class="cls-35" cx="478.92" cy="712.83" rx="13.6" ry="7"/><path class="cls-33" d="M475.26,938.65s-14.46-50.23,24.07-78.24c0,0-8.49-5.65-4-8.57s11.91-6.51,11.91-6.51,6.75,3.24,4.44,12.51l6.69,17.52,4.17,3,9.18,23.85,2.42,10.09L519.55,921l-5-10.94-6.64-23.52.42-6s-25,13-1.3,47.22l34.15,1.4,1,15.83-65.93-.3Z"/><polygon class="cls-36" points="475.63 559.17 475.63 642.17 422.2 712.17 532.65 712.17 483.32 642.17 483.32 559.17 475.63 559.17"/><rect class="cls-37" x="154.99" y="1025.28" width="33.23" height="94.28"/><rect class="cls-37" x="259.94" y="1025.28" width="32.49" height="94.28"/><rect class="cls-15" x="154.99" y="922.96" width="137.71" height="154.75"/><rect class="cls-17" x="175.93" y="836.95" width="96.65" height="136.02" rx="42.74" ry="42.74"/><ellipse class="cls-18" cx="225.08" cy="831.07" rx="11.37" ry="9.5"/><rect class="cls-19" x="185.77" y="869.7" width="76.98" height="33.45" rx="15.74" ry="15.74"/><circle cx="247.78" cy="885.33" r="11.32"/><circle cx="200.29" cy="885.33" r="10.93"/><rect class="cls-20" x="211.22" y="879.96" width="25.23" height="41.95" rx="9.6" ry="9.6"/><polygon class="cls-23" points="154.99 922.96 121.85 1025.29 154.99 1025.29 154.99 922.96"/><polyline class="cls-23" points="292.44 1025.29 292.44 922.96 325.57 1025.29"/><rect class="cls-19" x="296.63" y="1025.28" width="18.82" height="11.83"/><rect class="cls-38" x="272.18" y="968.75" width="2.42" height="12.22" transform="translate(114.78 -25.11) rotate(6.65)"/><rect class="cls-19" x="129.83" y="1024.62" width="18.82" height="11.83"/><path class="cls-39" d="M283.43,980.58v13.54a15.37,15.37,0,0,1-15.33,15.33h-6.42a15.37,15.37,0,0,1-15.33-15.33V980.58"/><rect class="cls-40" x="275.3" y="968.36" width="2.42" height="12.22"/><rect class="cls-40" x="275.02" y="967.03" width="3.18" height="4.28"/><rect class="cls-40" x="278.01" y="971.32" width="0.19" height="4.27"/><rect class="cls-28" x="12.73" y="572" width="228.03" height="151.67" rx="12" ry="12"/><rect class="cls-28" x="716.98" y="572" width="228.03" height="151.67" rx="12" ry="12"/><rect class="cls-32" x="19.27" y="579.25" width="105.88" height="137.17"/><rect class="cls-32" x="128.35" y="579.25" width="105.88" height="137.17"/><rect class="cls-27" x="116" y="635.67" width="3.67" height="15.33"/><rect class="cls-27" x="135.17" y="635.67" width="3.67" height="15.33"/><rect class="cls-32" x="723.52" y="580.52" width="105.88" height="137.17"/><rect class="cls-32" x="832.6" y="580.52" width="105.88" height="137.17"/><rect class="cls-27" x="820.25" y="636.93" width="3.67" height="15.33"/><rect class="cls-27" x="839.42" y="636.93" width="3.67" height="15.33"/><rect class="cls-27" x="360" y="702.67" width="3.67" height="15.33" transform="translate(1072.17 348.5) rotate(90)"/><polyline class="cls-10" points="960 1123 1920 1123 1920 563 960 563"/><text class="cls-41" transform="translate(1007 1101)">&gt;//Roko’s_Basillisk.exe</text></svg>