<svg xmlns="http://www.w3.org/2000/svg" viewBox="0 0 1081.48 572.6"><defs><style>.cls-1,.cls-2{fill:none;stroke-miterlimit:10;}.cls-1{stroke:red;}.cls-2{stroke:#2b00ff;}.cls-3{fill:#b2bad8;}.cls-4{fill:#090b19;}.cls-5{font-size:10.62px;fill:#fff;font-family:VisitorTT2BRK, Visitor TT2 BRK;}.cls-6{fill:#e5e5e5;}.cls-7{fill:#191938;}.cls-8{fill:#11112d;}.cls-9{fill:#0c0c21;}</style></defs><title>crowd</title><g id="Layer_13" data-name="Layer 13"><path class="cls-1" d="M292,12.93s83.32-25.9,110.31,0"/><path class="cls-2" d="M287.52,12S374.21-15,402.3,12"/><path class="cls-1" d="M725.11,197.89s-83.32,25.9-110.31,0"/><path class="cls-2" d="M729.58,198.84s-86.69,26.95-114.78,0"/><rect class="cls-3" x="359.72" y="9.53" width="355.96" height="190.03" rx="6.1" ry="6.1"/><rect class="cls-4" x="366.09" y="16.51" width="343.77" height="176.33"/><text class="cls-5" transform="translate(370.6 188.19) scale(0.99 1)">&gt;//Roko’s_Basillisk.exe</text><path class="cls-6" d="M462.56,83.9c.42.6,0,27.61,0,27.61h10.1V83.9Z"/><path class="cls-6" d="M619.16,83.9c.42.6,0,27.61,0,27.61h10.1V83.9Z"/><rect class="cls-6" x="493.79" y="123.23" width="94.69" height="8.12"/><rect class="cls-6" x="588.48" y="110.81" width="10.36" height="20.54"/><rect class="cls-6" x="493.79" y="113.67" width="10.84" height="17.69"/><rect class="cls-3" y="9.53" width="349.86" height="190.03" rx="6.1" ry="6.1"/><rect class="cls-4" x="6.26" y="16.51" width="337.88" height="176.33"/><text class="cls-5" transform="translate(10.69 188.19) scale(0.97 1)">&gt;//Roko’s_Basillisk.exe</text><path class="cls-6" d="M101.07,83.9c.41.6,0,27.61,0,27.61H111V83.9Z"/><path class="cls-6" d="M255,83.9c.41.6,0,27.61,0,27.61h9.93V83.9Z"/><rect class="cls-6" x="141.85" y="123.23" width="83" height="8.12"/><rect class="cls-6" x="224.84" y="110.81" width="10.19" height="20.54"/><rect class="cls-6" x="131.77" y="113.67" width="10.65" height="17.69"/><rect class="cls-3" x="725.52" y="9.67" width="355.96" height="190.03" rx="6.1" ry="6.1"/><rect class="cls-4" x="731.89" y="16.66" width="343.77" height="176.33"/><text class="cls-5" transform="translate(736.4 188.34) scale(0.99 1)">&gt;//Roko’s_Basillisk.exe</text><path class="cls-6" d="M828.36,84c.42.6,0,27.61,0,27.61h10.1V84Z"/><path class="cls-6" d="M985,84c.42.6,0,27.61,0,27.61h10.1V84Z"/><rect class="cls-6" x="859.6" y="123.38" width="94.69" height="8.12"/><rect class="cls-6" x="954.29" y="110.95" width="10.36" height="20.54"/><rect class="cls-6" x="859.6" y="113.81" width="10.84" height="17.69"/></g><g id="Layer_12" data-name="Layer 12"><rect class="cls-7" x="163.42" y="216.08" width="74.44" height="106.25" rx="29.41" ry="29.41"/><ellipse class="cls-7" cx="201.28" cy="211.49" rx="8.76" ry="7.42"/><rect class="cls-7" x="915.06" y="198.75" width="74.44" height="106.25" rx="29.41" ry="29.41"/><ellipse class="cls-7" cx="952.91" cy="194.15" rx="8.76" ry="7.42"/><rect class="cls-7" x="898.93" y="265.93" width="106.06" height="79.92"/><polygon class="cls-7" points="898.93 265.93 873.41 345.85 898.93 345.85 898.93 265.93"/><polyline class="cls-7" points="1004.78 345.85 1004.78 265.93 1030.3 345.85"/><rect class="cls-7" x="147.29" y="283.26" width="106.06" height="79.92"/><rect class="cls-7" x="929.54" y="355.79" width="65.42" height="25.54" transform="translate(1924.5 737.12) rotate(-180)"/><rect class="cls-7" x="878.91" y="355.79" width="17.16" height="10.95" transform="translate(1774.99 722.53) rotate(-180)"/><rect class="cls-7" x="1031.05" y="355.18" width="17.16" height="10.95" transform="translate(2079.26 721.3) rotate(-180)"/><rect class="cls-7" x="786.19" y="195.81" width="88.16" height="125.83" rx="34.83" ry="34.83" transform="translate(1660.54 517.45) rotate(180)"/><ellipse class="cls-7" cx="829.52" cy="190.37" rx="10.37" ry="8.79"/><rect class="cls-7" x="767.85" y="275.38" width="125.6" height="94.65" transform="translate(1661.3 645.4) rotate(-180)"/><polygon class="cls-7" points="893.45 275.38 923.68 370.03 893.45 370.03 893.45 275.38"/><polyline class="cls-7" points="768.09 370.03 768.09 275.38 737.87 370.03"/><rect class="cls-7" x="797.72" y="370.03" width="65.42" height="25.54" transform="translate(1660.86 765.59) rotate(-180)"/><rect class="cls-7" x="747.09" y="370.03" width="17.16" height="10.95" transform="translate(1511.35 751) rotate(-180)"/><rect class="cls-7" x="899.23" y="369.41" width="17.16" height="10.95" transform="translate(1815.63 749.77) rotate(-180)"/><rect class="cls-7" x="667.43" y="177.61" width="88.16" height="125.83" rx="34.83" ry="34.83" transform="translate(1423.02 481.04) rotate(180)"/><ellipse class="cls-7" cx="710.75" cy="172.17" rx="10.37" ry="8.79"/><rect class="cls-7" x="649.08" y="257.17" width="125.6" height="94.65" transform="translate(1423.77 608.99) rotate(-180)"/><polygon class="cls-7" points="774.69 257.17 804.91 351.82 774.69 351.82 774.69 257.17"/><polyline class="cls-7" points="649.32 351.82 649.32 257.17 619.1 351.82"/><rect class="cls-7" x="678.96" y="351.82" width="65.42" height="25.54" transform="translate(1423.33 729.18) rotate(-180)"/><rect class="cls-7" x="628.33" y="351.82" width="17.16" height="10.95" transform="translate(1273.83 714.59) rotate(-180)"/><rect class="cls-7" x="780.47" y="351.21" width="17.16" height="10.95" transform="translate(1578.1 713.36) rotate(-180)"/><rect class="cls-7" x="536.07" y="198.05" width="88.16" height="125.83" rx="34.83" ry="34.83" transform="translate(1160.3 521.92) rotate(180)"/><ellipse class="cls-7" cx="579.4" cy="192.6" rx="10.37" ry="8.79"/><rect class="cls-7" x="517.73" y="277.61" width="125.6" height="94.65" transform="translate(1161.06 649.87) rotate(-180)"/><polygon class="cls-7" points="643.33 277.61 673.56 372.26 643.33 372.26 643.33 277.61"/><polyline class="cls-7" points="517.97 372.26 517.97 277.61 487.75 372.26"/><rect class="cls-7" x="547.6" y="372.26" width="65.42" height="25.54" transform="translate(1160.62 770.06) rotate(-180)"/><rect class="cls-7" x="496.97" y="372.26" width="17.16" height="10.95" transform="translate(1011.11 755.46) rotate(-180)"/><rect class="cls-7" x="649.11" y="371.64" width="17.16" height="10.95" transform="translate(1315.38 754.23) rotate(-180)"/><rect class="cls-7" x="388.45" y="179.84" width="88.16" height="125.83" rx="34.83" ry="34.83" transform="translate(865.06 485.51) rotate(180)"/><ellipse class="cls-7" cx="431.78" cy="174.4" rx="10.37" ry="8.79"/><rect class="cls-7" x="370.11" y="259.4" width="125.6" height="94.65" transform="translate(865.82 613.46) rotate(-180)"/><polygon class="cls-7" points="495.71 259.4 525.94 354.05 495.71 354.05 495.71 259.4"/><polyline class="cls-7" points="370.35 354.05 370.35 259.4 340.13 354.05"/><rect class="cls-7" x="399.98" y="354.05" width="65.42" height="25.54" transform="translate(865.38 733.65) rotate(-180)"/><rect class="cls-7" x="349.35" y="354.05" width="17.16" height="10.95" transform="translate(715.87 719.05) rotate(-180)"/><rect class="cls-7" x="501.49" y="353.44" width="17.16" height="10.95" transform="translate(1020.15 717.82) rotate(-180)"/><rect class="cls-7" x="262.5" y="170.54" width="88.16" height="125.83" rx="34.83" ry="34.83" transform="translate(613.15 466.91) rotate(180)"/><rect class="cls-7" x="244.15" y="250.11" width="125.6" height="94.65" transform="translate(613.91 594.86) rotate(-180)"/><polygon class="cls-7" points="369.76 250.11 399.98 344.76 369.76 344.76 369.76 250.11"/><polyline class="cls-7" points="244.39 344.76 244.39 250.11 214.17 344.76"/><rect class="cls-7" x="274.03" y="344.76" width="65.42" height="25.54" transform="translate(613.47 715.05) rotate(-180)"/><rect class="cls-7" x="223.4" y="344.76" width="17.16" height="10.95" transform="translate(463.96 700.46) rotate(-180)"/><rect class="cls-7" x="375.54" y="344.14" width="17.16" height="10.95" transform="translate(768.24 699.23) rotate(-180)"/><polygon class="cls-7" points="251.77 252.34 281.99 346.99 251.77 346.99 251.77 252.34"/><rect class="cls-7" x="257.55" y="346.37" width="17.16" height="10.95" transform="translate(532.26 703.69) rotate(-180)"/><rect class="cls-7" x="160.59" y="344.14" width="909.38" height="95.22"/><rect class="cls-7" x="220.17" y="359.1" width="17.98" height="11.46" transform="translate(458.31 729.66) rotate(-180)"/><rect class="cls-7" x="722.56" y="260.25" width="92.32" height="90.96" rx="30.31" ry="30.31" transform="translate(1537.43 611.46) rotate(-180)"/><rect class="cls-7" x="471.57" y="235.51" width="92.32" height="131.77" rx="36.48" ry="36.48" transform="translate(1035.45 602.79) rotate(180)"/><ellipse class="cls-7" cx="516.94" cy="229.81" rx="10.86" ry="9.21"/><ellipse class="cls-7" cx="767.93" cy="254.55" rx="10.86" ry="9.21"/><ellipse class="cls-7" cx="310.02" cy="165.61" rx="10.37" ry="8.79"/><rect class="cls-7" x="257.42" y="192.88" width="74.44" height="106.25" rx="29.41" ry="29.41"/><ellipse class="cls-7" cx="295.27" cy="188.28" rx="8.76" ry="7.42"/><rect class="cls-7" x="241.29" y="260.06" width="106.06" height="79.92"/><polygon class="cls-7" points="241.29 260.06 215.76 339.98 241.29 339.98 241.29 260.06"/><polyline class="cls-7" points="347.14 339.98 347.14 260.06 372.66 339.98"/><rect class="cls-7" x="271.9" y="349.92" width="65.42" height="25.54" transform="translate(609.21 725.38) rotate(-180)"/><rect class="cls-7" x="221.27" y="349.92" width="17.16" height="10.95" transform="translate(459.7 710.79) rotate(-180)"/><rect class="cls-7" x="373.41" y="349.31" width="17.16" height="10.95" transform="translate(763.98 709.56) rotate(-180)"/><rect class="cls-7" x="128.55" y="189.94" width="88.16" height="125.83" rx="34.83" ry="34.83" transform="translate(345.26 505.71) rotate(180)"/><ellipse class="cls-7" cx="171.88" cy="184.5" rx="10.37" ry="8.79"/><rect class="cls-7" x="110.21" y="269.51" width="125.6" height="94.65" transform="translate(346.02 633.66) rotate(-180)"/><polygon class="cls-7" points="235.81 269.5 266.04 364.16 235.81 364.16 235.81 269.5"/><polyline class="cls-7" points="110.45 364.16 110.45 269.5 80.23 364.16"/><rect class="cls-7" x="140.08" y="364.16" width="65.42" height="25.54" transform="translate(345.58 753.85) rotate(-180)"/><rect class="cls-7" x="89.45" y="364.16" width="17.16" height="10.95" transform="translate(196.07 739.26) rotate(-180)"/><rect class="cls-7" x="241.59" y="363.54" width="17.16" height="10.95" transform="translate(500.34 738.03) rotate(-180)"/><rect class="cls-7" x="9.79" y="171.74" width="88.16" height="125.83" rx="34.83" ry="34.83" transform="translate(107.73 469.3) rotate(180)"/><ellipse class="cls-7" cx="53.11" cy="166.3" rx="10.37" ry="8.79"/><rect class="cls-7" x="15.72" y="251.3" width="101.33" height="94.65" transform="translate(132.76 597.25) rotate(-180)"/><polygon class="cls-7" points="117.05 251.3 147.27 345.95 117.05 345.95 117.05 251.3"/><rect class="cls-7" x="21.32" y="345.95" width="65.42" height="25.54" transform="translate(108.05 717.44) rotate(-180)"/><rect class="cls-7" x="122.83" y="345.34" width="17.16" height="10.95" transform="translate(262.82 701.62) rotate(-180)"/><line class="cls-7" x1="412.33" y1="338.27" x2="412.33" y2="433.49"/><rect class="cls-7" x="64.91" y="254.38" width="92.32" height="90.96" rx="30.31" ry="30.31" transform="translate(222.15 599.72) rotate(-180)"/><ellipse class="cls-7" cx="110.28" cy="248.68" rx="10.86" ry="9.21"/><path class="cls-7" d="M121.15,248.68c0-5.08-115-9.91-121-9.91s99.28,4.83,99.28,9.91"/></g><g id="Layer_11" data-name="Layer 11"><rect class="cls-8" x="90.75" y="249.35" width="99.46" height="144.48" rx="39.3" ry="39.3"/><ellipse class="cls-8" cx="141.33" cy="243.1" rx="11.7" ry="10.09"/><rect class="cls-8" x="69.19" y="340.71" width="141.71" height="108.68"/><polygon class="cls-8" points="69.19 340.71 35.09 449.39 69.19 449.39 69.19 340.71"/><polyline class="cls-8" points="210.63 449.39 210.63 340.71 244.73 449.39"/><rect class="cls-8" x="103.39" y="449.39" width="73.81" height="29.33"/><rect class="cls-8" x="214.95" y="449.39" width="19.36" height="12.57"/><rect class="cls-8" x="43.31" y="448.68" width="19.36" height="12.57"/><rect class="cls-8" x="239.46" y="265.7" width="99.46" height="144.48" rx="39.3" ry="39.3"/><ellipse class="cls-8" cx="290.05" cy="259.45" rx="11.7" ry="10.09"/><rect class="cls-8" x="217.91" y="357.05" width="141.71" height="108.68"/><polygon class="cls-8" points="217.91 357.05 183.81 465.73 217.91 465.73 217.91 357.05"/><polyline class="cls-8" points="359.35 465.73 359.35 357.05 393.45 465.73"/><rect class="cls-8" x="252.11" y="465.73" width="73.81" height="29.33"/><rect class="cls-8" x="363.67" y="465.73" width="19.36" height="12.57"/><rect class="cls-8" x="192.03" y="465.02" width="19.36" height="12.57"/><rect class="cls-8" x="373.46" y="244.79" width="99.46" height="144.48" rx="39.3" ry="39.3"/><ellipse class="cls-8" cx="424.04" cy="238.54" rx="11.7" ry="10.09"/><rect class="cls-8" x="351.9" y="336.15" width="141.71" height="108.68"/><polygon class="cls-8" points="351.9 336.15 317.81 444.83 351.9 444.83 351.9 336.15"/><polyline class="cls-8" points="493.34 444.83 493.34 336.15 527.44 444.83"/><rect class="cls-8" x="386.1" y="444.83" width="73.81" height="29.33"/><rect class="cls-8" x="497.66" y="444.83" width="19.36" height="12.57"/><rect class="cls-8" x="326.02" y="444.12" width="19.36" height="12.57"/><rect class="cls-8" x="521.66" y="268.26" width="99.46" height="144.48" rx="39.3" ry="39.3"/><ellipse class="cls-8" cx="572.24" cy="262.01" rx="11.7" ry="10.09"/><rect class="cls-8" x="500.11" y="359.62" width="141.71" height="108.68"/><polygon class="cls-8" points="500.11 359.62 466 468.3 500.11 468.3 500.11 359.62"/><polyline class="cls-8" points="641.54 468.3 641.54 359.62 675.64 468.3"/><rect class="cls-8" x="534.3" y="468.29" width="73.81" height="29.33"/><rect class="cls-8" x="645.86" y="468.29" width="19.36" height="12.57"/><rect class="cls-8" x="474.22" y="467.59" width="19.36" height="12.57"/><rect class="cls-8" x="688.2" y="247.36" width="99.46" height="144.48" rx="39.3" ry="39.3"/><ellipse class="cls-8" cx="738.79" cy="241.11" rx="11.7" ry="10.09"/><rect class="cls-8" x="666.65" y="338.71" width="141.71" height="108.68"/><polygon class="cls-8" points="666.65 338.71 632.55 447.39 666.65 447.39 666.65 338.71"/><polyline class="cls-8" points="808.09 447.39 808.09 338.71 842.19 447.39"/><rect class="cls-8" x="700.85" y="447.39" width="73.81" height="29.33"/><rect class="cls-8" x="812.41" y="447.39" width="19.36" height="12.57"/><rect class="cls-8" x="640.77" y="446.69" width="19.36" height="12.57"/><rect class="cls-8" x="830.31" y="236.68" width="99.46" height="144.48" rx="39.3" ry="39.3"/><ellipse class="cls-8" cx="880.89" cy="230.43" rx="11.7" ry="10.09"/><rect class="cls-8" x="808.76" y="328.04" width="141.71" height="108.68"/><polygon class="cls-8" points="808.76 328.04 774.66 436.72 808.76 436.72 808.76 328.04"/><polyline class="cls-8" points="950.2 436.72 950.2 328.04 984.29 436.72"/><rect class="cls-8" x="842.96" y="436.72" width="73.81" height="29.33"/><rect class="cls-8" x="954.52" y="436.72" width="19.36" height="12.57"/><rect class="cls-8" x="782.87" y="436.01" width="19.36" height="12.57"/><ellipse class="cls-8" cx="1014.01" cy="233" rx="11.7" ry="10.09"/><rect class="cls-8" x="941.87" y="330.6" width="102.86" height="108.68"/><polygon class="cls-8" points="941.87 330.6 907.77 439.28 941.87 439.28 941.87 330.6"/><rect class="cls-8" x="915.99" y="438.57" width="19.36" height="12.57"/><rect class="cls-8" x="18.76" y="436.01" width="1025.98" height="139.18"/><path class="cls-8" d="M1044.74,248a42.78,42.78,0,0,0-25.84-8.73h-11.49c-24.19,0-44,20.43-44,45.4v53.68c0,25,19.79,45.4,44,45.4h11.49a42.78,42.78,0,0,0,25.84-8.73Z"/><ellipse class="cls-8" cx="1059.9" cy="237.89" rx="12.26" ry="10.57"/><rect class="cls-8" x="984.35" y="340.11" width="106.24" height="113.81"/><polygon class="cls-8" points="984.36 340.11 948.64 453.92 984.36 453.92 984.36 340.11"/><rect class="cls-8" x="957.25" y="453.18" width="20.28" height="13.16"/><path class="cls-8" d="M1090.6,252.49a44.72,44.72,0,0,0-25.57-8.06h-12c-25.33,0-46.06,21.39-46.06,47.54v56.22c0,26.15,20.73,47.54,46.06,47.54h12a44.72,44.72,0,0,0,25.57-8.06Z"/><rect class="cls-8" x="306.56" y="339.68" width="104.16" height="104.44" rx="34.19" ry="34.19"/><rect class="cls-8" x="589.73" y="311.27" width="104.16" height="151.3" rx="41.15" ry="41.15"/><ellipse class="cls-8" cx="642.71" cy="304.73" rx="12.26" ry="10.57"/><rect class="cls-8" x="15.72" y="315.78" width="104.16" height="151.3" rx="41.15" ry="41.15"/><ellipse class="cls-8" cx="68.16" cy="311.15" rx="12.26" ry="10.57"/><rect class="cls-8" x="-19.39" y="248.63" width="99.46" height="144.48" rx="39.3" ry="39.3"/><ellipse class="cls-8" cx="31.19" cy="242.38" rx="11.7" ry="10.09"/><ellipse class="cls-8" cx="359.53" cy="333.14" rx="12.26" ry="10.57"/></g><g id="Layer_10" data-name="Layer 10"><rect class="cls-9" x="89.43" y="337.54" width="104.16" height="148.67" rx="41.15" ry="41.15"/><ellipse class="cls-9" cx="142.4" cy="331.11" rx="12.26" ry="10.39"/><rect class="cls-9" x="66.86" y="435.28" width="148.4" height="143.67"/><polygon class="cls-9" points="66.86 435.28 31.15 578.95 66.86 578.95 66.86 435.28"/><rect class="cls-9" x="-20.71" y="336.83" width="104.16" height="148.67" rx="41.15" ry="41.15"/><ellipse class="cls-9" cx="32.26" cy="330.4" rx="12.26" ry="10.39"/><rect class="cls-9" x="-0.13" y="434.57" width="105.26" height="144.39"/><polyline class="cls-9" points="214.98 578.95 214.98 435.28 250.69 578.95"/><rect class="cls-9" x="245.17" y="354.35" width="104.16" height="148.67" rx="41.15" ry="41.15"/><ellipse class="cls-9" cx="298.15" cy="347.92" rx="12.26" ry="10.39"/><rect class="cls-9" x="222.6" y="452.4" width="148.4" height="126.55"/><polygon class="cls-9" points="222.6 452.4 186.89 578.95 222.6 578.95 222.6 452.4"/><rect class="cls-9" x="385.5" y="332.84" width="104.16" height="148.67" rx="41.15" ry="41.15"/><ellipse class="cls-9" cx="438.47" cy="326.41" rx="12.26" ry="10.39"/><rect class="cls-9" x="362.93" y="430.51" width="148.4" height="148.44"/><polygon class="cls-9" points="362.93 430.51 327.22 574.18 362.93 574.18 362.93 430.51"/><polyline class="cls-9" points="511.05 574.18 511.05 430.51 546.75 574.18"/><rect class="cls-9" x="540.7" y="356.99" width="104.16" height="148.67" rx="41.15" ry="41.15"/><ellipse class="cls-9" cx="593.67" cy="350.56" rx="12.26" ry="10.39"/><rect class="cls-9" x="518.13" y="455.09" width="148.4" height="123.87"/><polygon class="cls-9" points="518.13 455.09 482.42 578.95 518.13 578.95 518.13 455.09"/><polyline class="cls-9" points="666.25 578.85 666.25 455.09 701.96 578.85"/><rect class="cls-9" x="715.11" y="335.48" width="104.16" height="148.67" rx="41.15" ry="41.15"/><ellipse class="cls-9" cx="768.09" cy="329.05" rx="12.26" ry="10.39"/><rect class="cls-9" x="692.54" y="433.2" width="148.4" height="145.65"/><polygon class="cls-9" points="692.54 433.19 656.83 576.86 692.54 576.86 692.54 433.19"/><polyline class="cls-9" points="840.67 578.11 840.67 433.19 876.37 578.11"/><rect class="cls-9" x="863.93" y="324.5" width="104.16" height="148.67" rx="41.15" ry="41.15"/><ellipse class="cls-9" cx="916.9" cy="318.07" rx="12.26" ry="10.39"/><rect class="cls-9" x="841.36" y="422.01" width="148.4" height="156.94"/><polygon class="cls-9" points="841.36 422.01 805.65 565.68 841.36 565.68 841.36 422.01"/><polyline class="cls-9" points="989.49 565.68 989.49 422.01 1025.19 565.68"/><rect class="cls-9" x="814.26" y="564.94" width="20.28" height="13.16"/><ellipse class="cls-9" cx="1056.31" cy="320.71" rx="12.26" ry="10.39"/><rect class="cls-9" x="981.98" y="424.7" width="106.51" height="154.15"/><polygon class="cls-9" points="980.77 424.7 945.06 568.37 980.77 568.37 980.77 424.7"/><path class="cls-9" d="M1088.49,336.12a45.32,45.32,0,0,0-27.06-9h-12c-25.33,0-46.06,21-46.06,46.71v55.24c0,25.69,20.73,46.71,46.06,46.71h12a45.32,45.32,0,0,0,27.06-9Z"/></g><g id="Layer_6" data-name="Layer 6"><polygon class="cls-9" points="643.62 469.94 668.64 386.72 675.5 391.11 698.89 406.08 673.42 492.59 643.62 469.94"/><polygon class="cls-9" points="682.55 380.92 675.5 391.11 689.64 400.16 696.11 390.54 682.55 380.92"/><polygon class="cls-9" points="694.65 392.7 716.96 406.66 714.36 410.71 692.18 396.37 694.65 392.7"/><path class="cls-9" d="M681.51,383s-14.71-9.41-2.86-11.06c1.86-.26-1.82-3.79-4.55-5.08s-7.3,6.73-7.3,6.73-5.65,6.15-.26,9.14c5.92,3.29,3.35-.18,1.57-1.59-2.12-1.68-.28-2.67.37-2.24l11.15,7.39Z"/></g></svg>