<svg id="Layer_1" data-name="Layer 1" xmlns="http://www.w3.org/2000/svg" viewBox="0 0 23.23 23.98"><defs><style>.cls-1{fill:#846299;}</style></defs><title>download</title><path class="cls-1" d="M13.72,0A.58.58,0,0,1,14,.51c0,2.53,0,5.06,0,7.58,0,.19,0,.25.24.24.66,0,1.33,0,2,0h.21c.16,0,.33,0,.41.17s0,.3-.13.42l-1.34,1.75c-1,1.34-2,2.7-3.13,4-.32.38-.63.38-.95,0L6.61,9.06c-.1-.12-.26-.25-.17-.43s.29-.13.44-.13H9.15c.17,0,.22,0,.22-.21,0-2.6,0-5.2,0-7.79A.5.5,0,0,1,9.6,0Z"/><path class="cls-1" d="M11.61,24H1.68a1.59,1.59,0,0,1-1.61-1.2A2,2,0,0,1,0,22.25q0-3.37,0-6.74c0-.18,0-.24.23-.23q1.39,0,2.79,0c.19,0,.23.06.22.23,0,1.67,0,3.34,0,5,0,.19,0,.24.24.24H19.75c.21,0,.25-.05.25-.25,0-1.67,0-3.34,0-5,0-.17,0-.23.21-.22q1.4,0,2.81,0c.18,0,.22.05.22.22,0,2.26,0,4.51,0,6.77A1.63,1.63,0,0,1,21.49,24Z"/></svg>