<?xml version="1.0" encoding="utf-8"?>
<!-- Generator: Adobe Illustrator 21.1.0, SVG Export Plug-In . SVG Version: 6.00 Build 0)  -->
<svg version="1.1" id="Layer_1" xmlns="http://www.w3.org/2000/svg" xmlns:xlink="http://www.w3.org/1999/xlink" x="0px" y="0px"
	 viewBox="0 0 1032.7 1334" style="enable-background:new 0 0 1032.7 1334;" xml:space="preserve">
<style type="text/css">
	.st0{fill:#EFBCD5;}
	.st1{fill:#F7CBE3;}
	.st2{fill:#F9F2F6;}
	.st3{fill:#D8ABC5;}
	.st4{fill:#E5B3CD;}
	.st5{fill:#FFFFFF;}
	.st6{fill:none;stroke:#5973F7;stroke-width:3;stroke-miterlimit:10;}
	.st7{fill:#E8C1D8;}
	.st8{opacity:0.5;fill:none;stroke:#E5B3CD;stroke-width:3;stroke-miterlimit:10;enable-background:new    ;}
	.st9{fill:none;stroke:#F95858;stroke-width:3;stroke-miterlimit:10;}
	.st10{fill:#D0ABD8;}
	.st11{fill:#8E6299;}
	.st12{fill:none;stroke:#F95858;stroke-width:6;stroke-miterlimit:10;}
	.st13{opacity:0.22;fill:none;stroke:#8E6299;stroke-width:6;stroke-miterlimit:10;enable-background:new    ;}
	.st14{fill:none;stroke:#5973F7;stroke-width:6;stroke-miterlimit:10;}
	.st15{fill:#725277;}
	.st16{fill:none;stroke:#F95858;stroke-width:15;stroke-miterlimit:10;}
	.st17{fill:none;stroke:#5973F7;stroke-width:15;stroke-miterlimit:10;}
	.st18{fill:#39293A;}
	.st19{opacity:0.22;}
	.st20{fill:none;stroke:#050000;stroke-width:15;stroke-miterlimit:10;}
	.st21{fill:#5973F7;}
	.st22{fill:#322033;}
	.st23{fill:#E15B67;}
	.st24{fill:#6470E3;}
	.st25{fill:#231123;}
	.st26{enable-background:new    ;}
	.st27{fill:#593C60;}
</style>
<title>keyart-mobile</title>
<polygon class="st0" points="1579.2,0 -539.8,0 -539.8,521.9 1579.2,435 "/>
<rect x="-458.6" y="434.5" class="st0" width="2037.8" height="604.7"/>
<g id="Layer_3">
	<path class="st1" d="M627.8,696.2c0,0,35.4-61.2,79.5-24.4c18.8,15.7,17.5,34.1,17.5,34.1h13.8c0,0,2.2-40.7,27.9-18.4
		c0,0,1.3-15.7,10.5-10.4c0,0,1.3-21.4,9.6-17c0,0,9.6-6.5,14.8-4.8c0,0-4.8-24,5.2-23.6c0,0,15.3-23.6,12.2-25.3s13-9.2,22.7-4.4
		c0,0,0-26.6,20.1-21.8s16.6,9.6,16.6,9.6s-0.4-21.8,7.8-20.9c0,0,3.5-20.1,14-16.6l10.5-0.4c0,0,3.9-12.7,14-8.3
		c0,0,20.5-19.3,38.4-0.9c0,0,3,18.8,7,15.8s19.8-1.4,17.1,18.8c-0.8,5.8,13.8,1.4,15.5,8.1s-3.1-14,8.5-11.6l11.5,2.4
		c0,0-4.5-22.5,14.7-20.2c19.2,2.3,26.4,26.8,26.4,26.8s24.6-3.7,17.1,10.9c0,0,13.6-11,15.1,6.6c0,0,11.8,5.2,4.7,20.3
		c0,0,30.8,13.2,20.5,33.7c0,0,16-22.7,27.6-7.6c0,0,12.9-18.2,28.2-4.7c0,0,4.9-17.2,15.7-10.5c0,0-7.6-19.8,15.1-16.6
		c0,0-17.3-26.6,17.7-24.7c0,0,5.2-31.8,38.4-26.6c0,0,5-46.6,20.9-59.3c15.2-12.1,50.4-1.8,50.4-1.8s3.8-24,34.7-17.6
		c0,0,2.2-38.9,12.8-37.8s0.2-4.8,4.8-11.8c23-35.1,143.4-42.3,191.6,0v604.1h-2119l-3.5-591.8c1-74.7,184.4-77,179.1,3.2
		c0,0,40.8,19.8,46.6,57c0,0,11.1-20.4,36.1,8.1c0,0,80.9-30.9,68.7,45.4c0,0,48.9-8.7,57.1,15.1c0,0,28.5,7.6,23.3,28
		c0,0,0.6,28.5,18.6,22.1l15.2,4.7c0,0,3.5-26.8,26.8-8.2s24.5,31.4,24.5,31.4s16.9-14.5,28-1.2c0,0,17.5-25,26.8-17.5
		c0,0,12.8-22.1,28-11.6c0,0-5.2-25.6,14-21c0,0,0.6-61.1,30.3-48.9c0,0,28.5-46.6,68.7,0c0,0,26.8,13.4,24.4,26.8
		c0,0,15.7-17.5,38.4,1.2c0,0,46-43.7,54.7-1.2c0,0,28.5-2.3,11.6,29.1c0,0,13.1-9.5,17.5,1.5c0,0,3.8-14.4,18.6-6.7
		c0,0,15.7-8.9,23.6,8.4c0,0,35.4-8.9,26.5,14.8c0,0,7.7,8,2.9,14c0,0,22.7-0.2,19.2,20.7c0,0,6.1-28.4,14.9-24.7c0,0,22-25,33.5,7
		c0,0,19.6,13.8,12.8,22.7c0,0,24.9-6.8,40.8,4.1s14.9,37.8,14.9,37.8S587.7,736.4,627.8,696.2z"/>
	<circle class="st2" cx="560.2" cy="712.3" r="58"/>
</g>
<path class="st3" d="M350.6,702.3l-26.8,34.9c0,0,6.4,26.2,40.8,21s101.3-33.2,82.7-21s54.7,19.8,64,14s48.9-1.2,48.9-1.2l67.5-53.6
	L603.3,707l-43.1-10.5l-48.9,16.3l-25.6-8.2l-23.3-8.2l-26.8,7l-16.3-7c0,0-5.2-13.4-16.3-7s-24.5,12.8-24.5,12.8L350.6,702.3z"/>
<g id="Layer_2">
	<path class="st4" d="M-458.6,694.1h20.2l11.4-3.5c0,0,15.7,12.6,26.2,9.6s12.2-9.6,12.2-9.6l4.4,13.9l51.5-26.1
		c0,0-0.4,19.6,43.7,13s57.6-27.8,57.6-27.8l68.1,31.4c0,0,37.6-16.5,103.9-64.3c0,0,88.2,41.3,122.3,36.9s21.8-16.1,21.8-16.1
		s17.5,4.8,32.3-12.2h16.8c0,0,23.1-15.3,29.7-17.5s16.2,2.2,27.1,0s21.8-17.5,21.8-17.5l53.3,28.8l7.9-6.1
		c0,0,41.1,98.3,118.8,94.3s56.8,20.3,102.2,15.4s148.5-52.1,148.5-52.1l13.1-4.4l7-9.5c0,0,7.9,2,18.3-9.8s22.7-12.2,22.7-12.2
		s3.2,0.2,21-28.8c4.8-7.9,5.2,9.6,46.3-25.3c0,0,4.8-6.5,19.2-3.5s39.8,52,79.5,43.7s91.3,27.5,91.6,24.4s34.1,41.1,91.7,14.8
		c0,0,33.2,44.2,48,39.8l21,325H-458.6V694.1z"/>
	<path class="st5" d="M404.4,765.5l11.4-6.1c0,0,129.3-2.2,139.7,0c0,0,12-8.2,19.2-7.9s-14.3-8.7-14.3-8.7l43.2,2.6
		c0,0-10.8,6.7-11.6,8.8c0,0-15.9,2.3-22.3,7.7c0,0,95.3,5.4,93.5,7.4s3.1,2.5-7.9,2.6c0,0-6.1,3.9-2.3,6.4s18-1.6,21,0
		s44.1,4.7,49.5,2.9s2.3-5.5,2.3-5.5s20.4-1.3,20.1-2.3s1.5-2.6,1.5-2.6h36.4c-4.6,15.5-14.1,29.2-27.1,39c0,0-18.3,23.9-18.9,31.7
		s-21,27.4-62.3,34.6s-65.7,17.3-97.2,9.6s-1.6-12.5-103-49.8L406.6,789c0,0,5.8-3.6,13.7-9.6S415.2,768.1,404.4,765.5z"/>
</g>
<g id="Layer_3-2">
	<path class="st6" d="M951.6,852.5c0,0-114.7-78.3-136.8-123.7s-15.8-133-15.8-133s9.8-22.5,1.6-34.7"/>
	<path class="st7" d="M748,565.3c0,0,2.8-23.4,45.6-65.4l1.2,4.7C794.8,504.6,768.4,556.2,748,565.3z"/>
	<path class="st4" d="M772.8,594.2c0,0,17.5-25.4,15.4-29.5c-2.5-4.4-5.2-8.7-8.1-12.8l8.6-8.8c0,0,12.2,14,12.9,18
		c1.1,6.2-4.3,34.7-4.3,34.7L772.8,594.2z"/>
	<path class="st4" d="M788.7,543.1c0,0,11.6-20.9,4.9-43.2c1.7,13.5-33.2,56.7-45.6,65.4c10.9-1.3,32.9-12.9,32.9-12.9L788.7,543.1z
		"/>
	<path class="st8" d="M951.6,852.5c0,0-114.7-78.3-136.8-123.7s-15.8-133-15.8-133s9.8-22.5,1.6-34.7"/>
	<path class="st9" d="M949.8,852.5c0,0-114.7-78.3-136.8-123.7s-15.8-133-15.8-133s8.3-16.4,3.3-34.7"/>
	<polygon class="st4" points="770.2,543.6 744.1,523 775.5,536.2 	"/>
	<ellipse transform="matrix(0.9946 -0.104 0.104 0.9946 -50.4233 80.3611)" class="st4" cx="745.4" cy="523.7" rx="1.8" ry="1.8"/>
	<path class="st8" d="M949.8,852.5c0,0-114.7-78.3-136.8-123.7s-15.8-133-15.8-133s8.3-16.4,3.3-34.7"/>
</g>
<path class="st10" d="M-539.8,642l246.4-18.7c0,0-18,28.1,9.7,41.3s24.6,36.9,70.2,7s67.6-64.5,56.2-63.2s79.9,11.4,79.9,11.4
	s43,4.4,39.5,9.7S-18.6,619-18.6,619l65.8-10.6l11.4-16.7H76v-10.5l7.9,12.3l20.2-3.5c0,0,19.3,22.4,36.9,19.3s11.4-7,11.4-7
	l13.2,3.5l20.2,7l50.9-13.2c0,0,32.5,7,33.4,14s23.7,23.7,23.7,23.7s-14.5,39.1,14.9,29.9s33.4-5.3,33.4-5.3l32.5,13.2
	c0,0,8.8,19.3,16.7,19.3s7.9-10.5,7.9-10.5l14,4.9c0,0,30.7-13.5,47.4,0h17.6l15.9,5.6l14.9-5.6l16.7,5.6c0,0,28,22.5,43.5,22.5
	s56.2,29.9,56.2,29.9s33.1-9.4,36.9-4.7s84.9,26.9,111.2,24l13.5,0.3c0,0,11.4,26.1,37.5,23.7s55,1.5,67.3-2.9l6.4-11.1
	c0,0,43.9-12.6,106.5,4.7l124.1,15.3v196.6H-539.8V642z"/>
<path class="st11" d="M-539.8,723.4l237.9,27.3h16.8l53.2-63.5c0,0,111.7,42.2,111.7,40s19.2-35.7,19.2-35.7l83.8,39.1l28.8-38.3
	l22.7,5.2L52.6,675l34,7.8l76-1.8l21.8-5.2c0,0,82,50.6,111.7,61.4s81.1,5.6,81.1,5.6l55,13v33h20.1l9.6-33.9l99.1,23.5l53.6-27.8
	l31.3,33.1l45.4,26.1l89-19.1c0,0,4.5-55.2,4.4-63.9l66.3-23.9l30.9-37.7l5.9-1.8l-4.2-2.2l0.2-5.9c0,0,4.8-14.6,7.8-14.2
	s41.9,1.7,41.9,1.7l17.5,6.1c0,0,11.2,17.5,24.7,16.8l58.2,27.8c0,0-13.1-2.6,44.8-7.8l8.7-18.6l40.2-4.1l11.1,6.4l101.3,16.8
	l8.2,34.2l36.7,8.7l20.9,24.3l155.9-59.2l15.7-31.3l68.7,7l9.9-18.6l23.3-18V1039h-2119L-539.8,723.4z"/>
<path class="st12" d="M806.3,718.7c-1.2-3.5-15.6-5.2-3.8,19.8c11.8,24.8,73.7,113.3,73.7,113.3l31.4,55.9"/>
<path class="st13" d="M806.3,718.7c-1.2-3.5-15.6-5.2-3.8,19.8c11.8,24.8,73.7,113.3,73.7,113.3l31.4,55.9"/>
<path class="st14" d="M810.5,717.3c-0.9-2.5-12.8-10.1-3.8,20.2c7.9,26.6,73.7,113.3,73.7,113.3l31.4,55.9"/>
<path class="st13" d="M810.5,717.3c-0.9-2.5-12.8-10.1-3.8,20.2c7.9,26.6,73.7,113.3,73.7,113.3l31.4,55.9"/>
<path class="st15" d="M-539.8,679l125.5,52.3l7,27.9l66.3,31.4c0,0,69.3,11.1,92-21S-118.6,758-118.6,758l18.6-14l19.8-7l12.8-15
	l33.8-33.8h189.1c0,0,47.7,27.9,76.7,25.6c0,0-5.2,34.9,38.4,32.5s154.6,46,154.6,46l256.9,79.5L790.2,859l31.4,12.8h71.5
	c0,0,0,25.7,61.7,17.6c0,0,40.2-29.7,83.8-48.9l32.6-44.3l31.4,2.3l21-121.1c0,0,1.8,21.5,40.8,11.6l119.9,55.9l108.3,5.8l10.5-13.8
	h25.6l11.6,30.2l63.8-79.2V660c0.3,0,18.9-11.6,46.8-7s28,41.9,28,41.9V1039h-2119L-539.8,679z"/>
<g id="Layer_2-2">
	<path class="st16" d="M768.3,849.8L678.7,871L768.3,849.8z"/>
	<path class="st17" d="M758.3,854.9l-68,15L758.3,854.9z"/>
	<path class="st16" d="M682.2,870.3c0,0-113,18.1-126.1-0.9"/>
	<path class="st16" d="M545.5,865.6c-1.4-1.8-23.1-12.5-20.8-7.4"/>
	<path class="st17" d="M556.1,869.5c-1.4-1.8-23.6-18.9-21.4-13.8"/>
	<path class="st18" d="M-539.8,758.9l116,7.2c0,0,44.5,59.3,87.3,54.1s124,0.3,124,0.3l17.5-33.3l55.9-8.9H-2.9l286.5,41.8h152.2
		c0,0,11.4,56.4,64.6,46.8l53.3-9.6c0,0-18.3,38.4,42.8,35.8S800.7,832,800.7,832l10.5-61.1c0,0,20.1,8.7,19.2-17.5l-0.9-26.2
		l86.5-43.7l55.9-45.4h62.9l47.2,12.2l64.6-1.8l21,54.1l50.6,17.5l8.7,24.5l26.2,21l10.5,24.4l57.6-3.5l8.7-27.9l69.8,7l17.5-55.9
		l59.4-3.5l29.9,26.9l54.1-25.1l18.6-47.2v374.7l-2119-2.9L-539.8,758.9z"/>
	<path class="st16" d="M524.6,857.7c0,0,4.6,173.9,6,172"/>
	<path class="st17" d="M534.7,854.7c0,0,8.3,182.6,7.8,180"/>
	<path class="st17" d="M694.5,867.2c-100.9,123.8-116.1,18.4-139.8,1.2"/>
	<g class="st19">
		<path class="st20" d="M768.3,848l-89.6,21.2L768.3,848z"/>
		<path class="st20" d="M757.8,852.9l-65.5,13.7L757.8,852.9z"/>
	</g>
</g>
<polygon class="st21" points="700.3,871.9 701.5,864.8 693.8,869.8 "/>
<path class="st18" d="M551.1,871.8c0,0,1.1,5,1.3,5.6c0,0.1-1.6,1.6-1.6,1.6l-1.5-5.5L551.1,871.8z"/>
<path class="st22" d="M-539.8,791.1l50.3,12.9l244.9-28.3l128.9-59.3l82.5-33.5l51.5,15.5l85.1-67l82.5-15.5c0,0,156-60.5,170.1-49
	l14.2,11.6v76l-27.1,30.2L330.2,719l-25.8,18l23.2,43.8l56.7,54.1h36.1l23.2,38.7l38.7,87.6l64.4,46.4l28.3,25.1H-539.8V791.1z"/>
<polygon class="st23" points="807.5,718.3 807.7,718.5 806.4,718.9 806.4,718.6 807.4,718.2 "/>
<path class="st24" d="M807.7,718.4l5.6-2v-0.2C813.3,716.3,808.3,717.4,807.7,718.4z"/>
<rect x="-539.8" y="1032.7" class="st25" width="2119" height="301.3"/>
<path class="st25" d="M144.7,1039.1v-61.5c0,0,142.8-20.3,172.7,0c12.2,8.2,23.6,17.6,33.9,28H380l24.3-42c0,0,21-8,23.7-10.7
	s56.7,1.3,59.3,3.3s19.3,12.7,19.3,12.7s46-1.3,72,18l115.9,3.9l36.8-19.3l41.4-71.3c0,0,174.9-46.5,229.9-52.3
	s-121,265.3-121,265.3L144.7,1039.1z"/>
<path class="st25" d="M-119.3,962l69.3-2.7l33.3-26.7L30,976c0,0,85.3-4.7,100,0s14.7,1.6,14.7,1.6v77.7L-250,1048l-289.8-8.9V958
	c0,0,39.5-18,53.5-5l12-8.3l12-6.1l41,2.7l20,13.7l5,10.7l43.7-8l71.3,9.7l68.3-12.7l24.7-7.3h17.7l13.7,5.3L-119.3,962z"/>
<path class="st25" d="M957.3,921.3c-2-1.3,45.3-73.3,45.3-73.3l44.7,4.5L1294,996l82.7-11.3l26.7,7.9l22,16.7l8,16.7l49.3-12
	l61.3-28l35.2,11.3v47.3L924,1059.3L955.3,920"/>
<g class="st26">
	<path class="st22" d="M323.4,423.6H319v-21.9h4.4v13.2h4.4v4.4h-4.4V423.6z M332.2,414.9h-4.4v-4.4h4.4V414.9h4.4v-13.2h4.4v21.9
		h-4.4v-4.4h-4.4V414.9z"/>
	<path class="st22" d="M345.3,401.7h21.9v4.4h-17.6v4.4h8.8v4.4h-8.8v4.4h17.6v4.4h-21.9V401.7z"/>
	<path class="st22" d="M371.7,401.7h4.4v17.6h17.6v4.4h-21.9V401.7z"/>
	<path class="st22" d="M398,401.7H420v4.4h-17.6v13.2H420v4.4H398V401.7z"/>
	<path class="st22" d="M424.3,401.7h21.9v21.9h-21.9V401.7z M428.7,419.2h13.2v-13.2h-13.2V419.2z"/>
	<path class="st22" d="M459.5,406.1h-4.4v17.6h-4.4v-21.9h21.9v21.9h-4.4v-17.6h-4.4v17.6h-4.4V406.1z"/>
	<path class="st22" d="M477,401.7H499v4.4h-17.6v4.4h8.8v4.4h-8.8v4.4H499v4.4H477V401.7z"/>
	<path class="st22" d="M503.4,419.2h4.4v8.8h-4.4V419.2z"/>
	<path class="st22" d="M538.5,401.7h21.9v4.4h-8.8v17.6h-4.4v-17.6h-8.8V401.7z"/>
	<path class="st22" d="M578,414.9h-8.8v8.8h-4.4v-21.9h21.9v13.2h-4.4v4.4h4.4v4.4h-4.4v-4.4H578V414.9z M569.2,410.5h13.2v-4.4
		h-13.2V410.5z"/>
	<path class="st22" d="M608.7,414.9h-13.2v8.8h-4.4v-21.9h21.9v21.9h-4.4V414.9z M595.5,410.5h13.2v-4.4h-13.2V410.5z"/>
	<path class="st22" d="M621.9,414.9h-4.4v-13.2h4.4V414.9h4.4v4.4h4.4v4.4h-4.4v-4.4h-4.4V414.9z M630.7,414.9h4.4v4.4h-4.4V414.9z
		 M635,401.7h4.4v13.2H635V401.7z"/>
	<path class="st22" d="M643.8,401.7h21.9v4.4h-17.6v4.4h8.8v4.4h-8.8v4.4h17.6v4.4h-21.9V401.7z"/>
	<path class="st22" d="M670.2,401.7h4.4v17.6h17.6v4.4h-21.9V401.7z"/>
	<path class="st22" d="M696.5,401.7h4.4v17.6h17.6v4.4h-21.9V401.7z"/>
	<path class="st22" d="M722.8,401.7h21.9v4.4h-17.6v4.4h8.8v4.4h-8.8v4.4h17.6v4.4h-21.9V401.7z"/>
	<path class="st22" d="M762.3,414.9h-8.8v8.8h-4.4v-21.9h21.9v13.2h-4.4v4.4h4.4v4.4h-4.4v-4.4h-4.4V414.9z M753.6,410.5h13.2v-4.4
		h-13.2V410.5z"/>
</g>
<g class="st26">
	<path class="st27" d="M448.9,460.7v-17.1h2.3v17.1H448.9z"/>
	<path class="st27" d="M459.4,458.8l0.3,1.9c-0.6,0.1-1.1,0.2-1.6,0.2c-0.8,0-1.4-0.1-1.8-0.4c-0.4-0.2-0.7-0.6-0.9-0.9
		s-0.3-1.2-0.3-2.5v-7.1h-1.5v-1.6h1.5v-3.1l2.1-1.3v4.3h2.1v1.6h-2.1v7.2c0,0.6,0,1,0.1,1.2s0.2,0.3,0.4,0.4
		c0.2,0.1,0.4,0.2,0.7,0.2C458.8,458.9,459.1,458.8,459.4,458.8z"/>
	<path class="st27" d="M461.4,445.9v-2.4h2.2v1.9c0,1-0.1,1.8-0.4,2.2c-0.3,0.6-0.9,1.1-1.6,1.4l-0.5-0.8c0.4-0.2,0.7-0.4,0.9-0.8
		c0.2-0.4,0.3-0.9,0.3-1.5H461.4z"/>
	<path class="st27" d="M465.5,457l2.1-0.3c0.1,0.8,0.4,1.5,1,1.9c0.5,0.4,1.3,0.7,2.2,0.7c1,0,1.7-0.2,2.1-0.6s0.7-0.9,0.7-1.4
		c0-0.5-0.2-0.8-0.6-1.1c-0.3-0.2-1-0.4-2.1-0.7c-1.5-0.4-2.6-0.7-3.2-1s-1-0.7-1.4-1.2c-0.3-0.5-0.5-1.1-0.5-1.7
		c0-0.6,0.1-1.1,0.4-1.5c0.3-0.5,0.6-0.9,1-1.2c0.3-0.2,0.8-0.4,1.3-0.6c0.6-0.2,1.2-0.3,1.8-0.3c1,0,1.8,0.1,2.6,0.4
		s1.3,0.7,1.6,1.1c0.3,0.5,0.6,1.1,0.7,1.9l-2,0.3c-0.1-0.6-0.4-1.1-0.8-1.5c-0.4-0.4-1.1-0.5-1.9-0.5c-1,0-1.6,0.2-2.1,0.5
		c-0.4,0.3-0.6,0.7-0.6,1.1c0,0.3,0.1,0.5,0.3,0.7c0.2,0.2,0.4,0.4,0.8,0.6c0.2,0.1,0.8,0.3,1.9,0.5c1.5,0.4,2.5,0.7,3.1,1
		c0.6,0.3,1,0.6,1.4,1.1c0.3,0.5,0.5,1.1,0.5,1.8c0,0.7-0.2,1.4-0.6,2c-0.4,0.6-1,1.1-1.8,1.4c-0.8,0.3-1.6,0.5-2.6,0.5
		c-1.6,0-2.8-0.3-3.7-1C466.3,459.3,465.7,458.3,465.5,457z"/>
	<path class="st27" d="M489.5,458.8l0.3,1.9c-0.6,0.1-1.1,0.2-1.6,0.2c-0.8,0-1.4-0.1-1.8-0.4c-0.4-0.2-0.7-0.6-0.9-0.9
		s-0.3-1.2-0.3-2.5v-7.1h-1.5v-1.6h1.5v-3.1l2.1-1.3v4.3h2.1v1.6h-2.1v7.2c0,0.6,0,1,0.1,1.2s0.2,0.3,0.4,0.4
		c0.2,0.1,0.4,0.2,0.7,0.2C488.8,458.9,489.1,458.8,489.5,458.8z"/>
	<path class="st27" d="M491.5,446v-2.4h2.1v2.4H491.5z M491.5,460.7v-12.4h2.1v12.4H491.5z"/>
	<path class="st27" d="M496.8,460.7v-12.4h1.9v1.7c0.4-0.6,0.9-1.1,1.5-1.5c0.6-0.4,1.4-0.6,2.2-0.6c0.9,0,1.7,0.2,2.3,0.6
		c0.6,0.4,1,0.9,1.2,1.6c1-1.4,2.3-2.2,3.8-2.2c1.2,0,2.2,0.3,2.8,1c0.7,0.7,1,1.7,1,3.1v8.5h-2.1v-7.8c0-0.8-0.1-1.4-0.2-1.8
		s-0.4-0.7-0.7-0.9s-0.8-0.3-1.3-0.3c-0.9,0-1.6,0.3-2.2,0.9c-0.6,0.6-0.9,1.5-0.9,2.8v7.2h-2.1v-8c0-0.9-0.2-1.6-0.5-2.1
		c-0.3-0.5-0.9-0.7-1.7-0.7c-0.6,0-1.1,0.2-1.6,0.5s-0.9,0.8-1.1,1.4s-0.3,1.5-0.3,2.6v6.4H496.8z"/>
	<path class="st27" d="M525.1,456.7l2.2,0.3c-0.3,1.3-1,2.2-1.9,2.9c-0.9,0.7-2.1,1-3.5,1c-1.8,0-3.2-0.6-4.3-1.7
		c-1.1-1.1-1.6-2.7-1.6-4.7c0-2.1,0.5-3.7,1.6-4.8c1.1-1.1,2.5-1.7,4.2-1.7c1.7,0,3,0.6,4.1,1.7c1,1.1,1.6,2.7,1.6,4.8
		c0,0.1,0,0.3,0,0.6h-9.2c0.1,1.4,0.5,2.4,1.2,3.1s1.6,1.1,2.6,1.1c0.8,0,1.4-0.2,2-0.6C524.4,458.2,524.8,457.6,525.1,456.7z
		 M518.3,453.3h6.9c-0.1-1-0.4-1.8-0.8-2.3c-0.7-0.8-1.5-1.2-2.6-1.2c-1,0-1.8,0.3-2.4,1C518.7,451.4,518.3,452.2,518.3,453.3z"/>
	<path class="st27" d="M537.1,460.7v-10.7h-1.9v-1.6h1.9V447c0-0.8,0.1-1.4,0.2-1.9c0.2-0.5,0.6-1,1.1-1.3c0.5-0.3,1.2-0.5,2.1-0.5
		c0.6,0,1.2,0.1,2,0.2l-0.3,1.8c-0.4-0.1-0.8-0.1-1.2-0.1c-0.6,0-1.1,0.1-1.4,0.4c-0.3,0.3-0.4,0.8-0.4,1.5v1.1h2.4v1.6h-2.4v10.7
		H537.1z"/>
	<path class="st27" d="M542.4,454.5c0-2.3,0.6-4,1.9-5.1c1.1-0.9,2.4-1.4,3.9-1.4c1.7,0,3.1,0.6,4.2,1.7c1.1,1.1,1.6,2.7,1.6,4.6
		c0,1.6-0.2,2.8-0.7,3.8c-0.5,0.9-1.2,1.6-2.1,2.1c-0.9,0.5-1.9,0.8-3,0.8c-1.7,0-3.1-0.6-4.2-1.7
		C542.9,458.2,542.4,456.6,542.4,454.5z M544.6,454.5c0,1.6,0.3,2.8,1,3.6c0.7,0.8,1.6,1.2,2.6,1.2c1,0,1.9-0.4,2.6-1.2
		c0.7-0.8,1-2,1-3.6c0-1.5-0.3-2.7-1-3.5c-0.7-0.8-1.6-1.2-2.6-1.2c-1,0-1.9,0.4-2.6,1.2S544.6,452.9,544.6,454.5z"/>
	<path class="st27" d="M556.4,460.7v-12.4h1.9v1.9c0.5-0.9,0.9-1.5,1.3-1.7c0.4-0.3,0.9-0.4,1.3-0.4c0.7,0,1.4,0.2,2.2,0.7l-0.7,1.9
		c-0.5-0.3-1-0.5-1.5-0.5c-0.5,0-0.9,0.1-1.2,0.4s-0.6,0.7-0.8,1.1c-0.2,0.7-0.3,1.6-0.3,2.4v6.5H556.4z"/>
	<path class="st27" d="M579.1,459.1c-0.8,0.7-1.5,1.1-2.2,1.4s-1.5,0.4-2.3,0.4c-1.4,0-2.4-0.3-3.1-1c-0.7-0.7-1.1-1.5-1.1-2.5
		c0-0.6,0.1-1.2,0.4-1.7c0.3-0.5,0.6-0.9,1.1-1.2s0.9-0.5,1.5-0.7c0.4-0.1,1-0.2,1.9-0.3c1.7-0.2,2.9-0.4,3.7-0.7c0-0.3,0-0.5,0-0.5
		c0-0.9-0.2-1.5-0.6-1.8c-0.5-0.5-1.3-0.7-2.4-0.7c-1,0-1.7,0.2-2.2,0.5c-0.5,0.3-0.8,1-1,1.8l-2-0.3c0.2-0.9,0.5-1.6,0.9-2.1
		c0.4-0.5,1-1,1.9-1.2c0.8-0.3,1.7-0.4,2.8-0.4c1.1,0,1.9,0.1,2.6,0.4c0.7,0.2,1.1,0.6,1.5,0.9c0.3,0.4,0.5,0.9,0.7,1.4
		c0.1,0.4,0.1,1,0.1,1.9v2.8c0,1.9,0,3.2,0.1,3.7c0.1,0.5,0.3,1,0.5,1.5h-2.2C579.3,460.2,579.1,459.7,579.1,459.1z M578.9,454.5
		c-0.8,0.3-1.9,0.6-3.4,0.8c-0.9,0.1-1.5,0.3-1.8,0.4c-0.4,0.2-0.6,0.4-0.8,0.7s-0.3,0.6-0.3,1c0,0.6,0.2,1,0.6,1.4
		c0.4,0.4,1,0.6,1.9,0.6c0.8,0,1.5-0.2,2.2-0.5c0.6-0.4,1.1-0.8,1.4-1.4c0.2-0.5,0.3-1.2,0.3-2.1V454.5z"/>
	<path class="st27" d="M588.2,465.5l0.4-1.8c0.4,0.1,0.7,0.2,1,0.2c0.4,0,0.7-0.1,1-0.4s0.3-1,0.3-2.1v-13h2.1v13
		c0,1.5-0.2,2.6-0.6,3.2c-0.5,0.8-1.3,1.2-2.5,1.2C589.3,465.7,588.8,465.6,588.2,465.5z M590.9,446v-2.4h2.1v2.4H590.9z"/>
	<path class="st27" d="M595.4,454.5c0-2.3,0.6-4,1.9-5.1c1.1-0.9,2.4-1.4,3.9-1.4c1.7,0,3.1,0.6,4.2,1.7c1.1,1.1,1.6,2.7,1.6,4.6
		c0,1.6-0.2,2.8-0.7,3.8c-0.5,0.9-1.2,1.6-2.1,2.1c-0.9,0.5-1.9,0.8-3,0.8c-1.7,0-3.1-0.6-4.2-1.7
		C595.9,458.2,595.4,456.6,595.4,454.5z M597.6,454.5c0,1.6,0.3,2.8,1,3.6c0.7,0.8,1.6,1.2,2.6,1.2c1,0,1.9-0.4,2.6-1.2
		c0.7-0.8,1-2,1-3.6c0-1.5-0.3-2.7-1-3.5c-0.7-0.8-1.6-1.2-2.6-1.2c-1,0-1.9,0.4-2.6,1.2S597.6,452.9,597.6,454.5z"/>
	<path class="st27" d="M617.6,460.7v-1.8c-1,1.4-2.3,2.1-3.9,2.1c-0.7,0-1.4-0.1-2-0.4s-1.1-0.6-1.4-1.1s-0.5-0.9-0.6-1.6
		c-0.1-0.4-0.1-1.1-0.1-2v-7.7h2.1v6.9c0,1.1,0,1.8,0.1,2.2c0.1,0.6,0.4,1,0.8,1.3c0.4,0.3,1,0.5,1.6,0.5c0.6,0,1.2-0.2,1.8-0.5
		c0.6-0.3,0.9-0.8,1.2-1.3c0.2-0.6,0.3-1.4,0.3-2.4v-6.6h2.1v12.4H617.6z"/>
	<path class="st27" d="M622.7,460.7v-12.4h1.9v1.9c0.5-0.9,0.9-1.5,1.3-1.7c0.4-0.3,0.9-0.4,1.3-0.4c0.7,0,1.4,0.2,2.2,0.7l-0.7,1.9
		c-0.5-0.3-1-0.5-1.5-0.5c-0.5,0-0.9,0.1-1.2,0.4s-0.6,0.7-0.8,1.1c-0.2,0.7-0.3,1.6-0.3,2.4v6.5H622.7z"/>
	<path class="st27" d="M630.7,460.7v-12.4h1.9v1.8c0.9-1.4,2.2-2,3.9-2c0.7,0,1.4,0.1,2.1,0.4s1.1,0.6,1.4,1.1s0.5,1,0.7,1.5
		c0.1,0.4,0.1,1.1,0.1,2v7.6h-2.1v-7.5c0-0.9-0.1-1.5-0.2-1.9c-0.2-0.4-0.5-0.8-0.9-1c-0.4-0.3-0.9-0.4-1.5-0.4
		c-0.9,0-1.7,0.3-2.3,0.8c-0.6,0.6-1,1.6-1,3.2v6.8H630.7z"/>
	<path class="st27" d="M652.4,456.7l2.2,0.3c-0.3,1.3-1,2.2-1.9,2.9s-2.1,1-3.5,1c-1.8,0-3.2-0.6-4.3-1.7c-1.1-1.1-1.6-2.7-1.6-4.7
		c0-2.1,0.5-3.7,1.6-4.8s2.5-1.7,4.2-1.7c1.7,0,3,0.6,4.1,1.7c1,1.1,1.6,2.7,1.6,4.8c0,0.1,0,0.3,0,0.6h-9.2
		c0.1,1.4,0.5,2.4,1.2,3.1c0.7,0.7,1.6,1.1,2.6,1.1c0.8,0,1.4-0.2,2-0.6C651.6,458.2,652.1,457.6,652.4,456.7z M645.5,453.3h6.9
		c-0.1-1-0.4-1.8-0.8-2.3c-0.7-0.8-1.5-1.2-2.6-1.2c-1,0-1.8,0.3-2.4,1C645.9,451.4,645.6,452.2,645.5,453.3z"/>
	<path class="st27" d="M657.1,465.4l-0.2-2c0.5,0.1,0.9,0.2,1.2,0.2c0.5,0,0.8-0.1,1.1-0.2s0.5-0.4,0.7-0.7c0.1-0.2,0.3-0.7,0.6-1.6
		c0-0.1,0.1-0.3,0.2-0.5l-4.7-12.4h2.3l2.6,7.2c0.3,0.9,0.6,1.9,0.9,2.9c0.2-1,0.5-1.9,0.9-2.8l2.6-7.2h2.1l-4.7,12.6
		c-0.5,1.4-0.9,2.3-1.2,2.8c-0.4,0.7-0.8,1.2-1.3,1.5c-0.5,0.3-1.1,0.5-1.7,0.5C658,465.7,657.6,465.6,657.1,465.4z"/>
</g>
</svg>
