<svg xmlns="http://www.w3.org/2000/svg" viewBox="0 0 81 82.38"><defs><style>.cls-1{fill:#fff;}.cls-2{fill:#0177b5;stroke:#0177b5;stroke-miterlimit:10;stroke-width:3px;}</style></defs><title>linkedincol</title><g id="Layer_2" data-name="Layer 2"><g id="Layer_1-2" data-name="Layer 1"><rect class="cls-1" x="4.5" y="7.95" width="68" height="68"/><path class="cls-2" d="M43.41,35.34c0-1.62-.06-2.76,0-3.89S43.25,30,42.12,30c-2.84.09-5.69.07-8.53,0-1,0-1.26.34-1.26,1.34q0,17.95,0,35.89c0,.95.22,1.28,1.18,1.26,2.94-.06,5.89-.09,8.83,0,1.32,0,1.57-.45,1.56-1.71-.06-5.85,0-11.7,0-17.55a14.91,14.91,0,0,1,1-6.19c1.15-2.57,3.45-3.75,6.74-3.46,2.42.21,4,1.7,4.68,4.46a17.64,17.64,0,0,1,.46,4.23c0,6.27,0,12.54,0,18.82,0,1.12.3,1.42,1.36,1.4,2.94-.07,5.89-.09,8.83,0,1.21,0,1.4-.43,1.4-1.55,0-7,0-14,0-21a31.32,31.32,0,0,0-.86-7.51c-1-3.94-3-7-6.88-8.41a16.15,16.15,0,0,0-9.75-.48A12.21,12.21,0,0,0,43.41,35.34ZM13.59,49.08c0,6,0,12,0,18,0,1.08.25,1.46,1.34,1.43,3-.07,6.08-.05,9.13,0,.85,0,1.13-.24,1.12-1.15q0-18.08,0-36.16c0-1-.38-1.2-1.24-1.18-2.94,0-5.88.07-8.82,0-1.15,0-1.56.25-1.54,1.54C13.63,37.4,13.59,43.24,13.59,49.08ZM26,17.78a6.8,6.8,0,0,0-6.67-6.92,6.83,6.83,0,0,0-6.72,6.88,6.83,6.83,0,0,0,6.76,7A6.8,6.8,0,0,0,26,17.78Zm50,63.11H4.94A3.45,3.45,0,0,1,1.5,77.44V4.94A3.45,3.45,0,0,1,4.94,1.5H76.06A3.45,3.45,0,0,1,79.5,4.94v72.5A3.45,3.45,0,0,1,76.06,80.88Z"/></g></g></svg>