<?xml version="1.0" encoding="utf-8"?>
<!-- Generator: Adobe Illustrator 23.1.0, SVG Export Plug-In . SVG Version: 6.00 Build 0)  -->
<svg version="1.1" id="Layer_2" xmlns="http://www.w3.org/2000/svg" xmlns:xlink="http://www.w3.org/1999/xlink" x="0px" y="0px"
	 viewBox="0 0 1324 1334" style="enable-background:new 0 0 1324 1334;" xml:space="preserve">
<style type="text/css">
	.st0{fill:#4EB8F9;}
	.st1{clip-path:url(#SVGID_2_);fill:#4EB8F9;}
	.st2{clip-path:url(#SVGID_2_);fill:#FFFFFF;}
	.st3{clip-path:url(#SVGID_2_);fill:#84DCC6;}
	.st4{clip-path:url(#SVGID_2_);fill:#69D1B1;}
	.st5{clip-path:url(#SVGID_2_);fill:#F2CD72;}
	.st6{clip-path:url(#SVGID_2_);fill:#5B1E3D;}
	.st7{clip-path:url(#SVGID_2_);fill:#933E69;}
	.st8{clip-path:url(#SVGID_2_);fill:#EDB23E;}
	.st9{clip-path:url(#SVGID_2_);}
	.st10{fill:#68A8DD;}
	.st11{fill:#25648E;}
	.st12{fill:#3173AA;}
	.st13{fill:#E4D6A7;}
	.st14{fill:#EA7B54;}
	.st15{clip-path:url(#SVGID_2_);fill:#773050;}
	.st16{clip-path:url(#SVGID_2_);fill:none;stroke:#54527C;stroke-width:3;stroke-miterlimit:10;}
	.st17{clip-path:url(#SVGID_2_);fill:#68A8DD;}
	.st18{clip-path:url(#SVGID_2_);fill:#3173AA;}
</style>
<g id="Layer_3">
	<g>
		
			<image style="overflow:visible;opacity:0.83;" width="1059" height="1070" xlink:href="D5590B68.png"  transform="matrix(1 0 0 1 133 132)">
		</image>
		<g>
			<ellipse class="st0" cx="662.5" cy="667.1" rx="229.5" ry="234.3"/>
		</g>
	</g>
</g>
<g>
	<defs>
		<ellipse id="SVGID_1_" cx="662.5" cy="667.1" rx="229.5" ry="234.3"/>
	</defs>
	<clipPath id="SVGID_2_">
		<use xlink:href="#SVGID_1_"  style="overflow:visible;"/>
	</clipPath>
	<polyline class="st1" points="1530.6,324.1 449,276.9 473.3,1154.6 	"/>
	<path class="st2" d="M1116.8,1114.9c0,0-743.3-814.5-737.9-814.6s71.5,7.3,71.5,7.3s568.1,150.3,630.8,277s165.8,326.8,277,379.4"
		/>
	<path class="st1" d="M1152.7,880c2.9,11.5-69.9-24.2-75.3-41.7c-5.4-17.5-24.3-66-24.3-66c10.1-2.7,64,30.3,75.5,45.8"/>
	<path class="st1" d="M874.6,562.7c-2.7,1.7-4.5,4.6-4.8,7.7c-0.9,8.6-2.5,21.7-4.7,23.9c-3.4,3.4,2,13.5,18.9,20.9
		c16.8,7.4,66,56.6,77.5,64.7s39.1-43.8,51.9-20.9c12.8,22.9,41.1-37.1,8.1-44.5c-33-7.4-78.2-14.2-85.6-11.5
		c-7.4,2.7-51.9-49.2-58-43.1C876.6,561.3,875.5,562.1,874.6,562.7z"/>
	<path class="st1" d="M1108.7,685.2c-10.6-31.5-19.5-42.8-19.5-42.8s-20.3,15.2-44.9-6.9c-2.7-2.4,0.5,31.1-11.8,35.2
		c-12.3,4.1-27.8-10.8-34.7-7.7c-6.9,3-26,34.5-26.1,38.5s66,72,66,72S1119.4,716.7,1108.7,685.2"/>
	<path class="st1" d="M781.6,429.2c0,0-31.7,35.7-35.7,45.2s-28.3,7.4-28.3,7.4s22.2,5.4,31,14.8s24.9,53.9,32.3,57.3
		c7.4,3.4,55.9-27,49.2-37.7c-6.7-10.8-29-30.3-29.7-40.4s8.1-40.4,8.8-43.8S781.6,429.2,781.6,429.2z"/>
	<path class="st1" d="M839.4,524.9c-3.8,0-7.1,2.7-8.1,6.3c-1.4,4.9-4.5,13.5-10.6,17.3c-8.8,5.4,6.1,12.1,14.2,16.8
		c8.1,4.7,2,22.2,2,22.2s27-21.6,27-18.9s6.1-41.1-2.7-38.4c-8.8,2.7-16.8,10.1-16.8,10.1s0-15.5-4.7-15.5
		C839.5,524.9,839.4,524.9,839.4,524.9z"/>
	<path class="st1" d="M625.9,443.4c4.7-0.7,20.2-10.1,30.3-4c10.1,6.1,31,21.6,35,27c4,5.4,29,33.7,7.4,22.9
		S625.9,443.4,625.9,443.4z"/>
	<path class="st1" d="M1085.5,748c0,0-22.9,13.5-19.5,18.2s33,11.5,40.4,12.1s-16.2-34.4-16.2-34.4L1085.5,748z"/>
	<path class="st3" d="M71.6,176.2l399.6,146.9c5.4,0,641.5,406.4,700.2,589l-94.7,76.1L-16.1,212.7L71.6,176.2z"/>
	<path class="st1" d="M535.7,342.4c2.8,1.1,32.5-0.1,45.5,9.7c13,9.7,70,36,70,36s-22.9,24.9-47.9,8.8s-64.8-45.9-64.8-45.9
		L535.7,342.4z"/>
	<path class="st1" d="M724.3,408.3c2.7,11.5,32.3,37.1,35,39.1c2.7,2-41.1,34.4-57.3,16.8s-50.5-44.5-50.5-44.5s-4-14.2,6.7-20.9
		c10.8-6.7-11.5-23.6-11.5-23.6l49.9,16.2C696.7,391.5,721.6,396.9,724.3,408.3z"/>
	<path class="st1" d="M728.3,402.3c2.7,2.7-0.7-6.1,10.8,12.8c11.5,18.9,29,20.9,29,20.9l2-22.9L728.3,402.3z"/>
	<path class="st1" d="M641.4,406.3c-7.4,5.4-14.8-2-10.8,9.4c4,11.5,16.8,8.1,16.8,8.1s-8.1-11.5-3.4-16.2
		C648.8,402.9,641.4,406.3,641.4,406.3z"/>
	<path class="st1" d="M778.2,416.4c-1.3,2-2.7,9.4-2.7,9.4l12.8-2L778.2,416.4z"/>
	<path class="st1" d="M813.2,433.3c0,0-3.4,30.3,5.4,47.8c8.8,17.5,31.7,20.9,30.3,42.5c-1.3,21.6,27-21.6,27-21.6
		s-21.6-37.1-20.2-45.2S813.2,433.3,813.2,433.3z"/>
	<path class="st1" d="M863.4,457.2c-4.8,4.2,22.9,44.5,23.6,48.5c0.7,4-14.8,8.1-14.2,18.2c0.7,10.1,3.4,19.5,22.2,21.6
		s39.8-14.2,49.9-14.8c10.1-0.7-13.5-39.1-8.1-43.1C942.3,483.5,869.5,451.8,863.4,457.2z"/>
	<path class="st1" d="M908.9,551.9c0,0,16.8,21.6,29.7,26.3c12.8,4.7,14.2-12.1,13.5-20.2c-0.7-8.1-3.4-19.5-7.4-16.2
		C940.6,545.1,908.9,551.9,908.9,551.9z"/>
	<path class="st1" d="M946,493.2c-3.1,3.6,4,30.3,9.4,40.4c5.4,10.1,1.3,37.1-1.3,41.8s4.7,9.4,25.6,13.5s42.5,5.4,44.5,5.4
		c2,0,7.4-16.2,0-28.3c-7.4-12.1-19.5-25.6-23.6-28.3c-4-2.7-29.7-38.4-29.7-38.4S950.7,487.8,946,493.2z"/>
	<path class="st1" d="M994.5,516.8c0,0,29.7,33,35,42.5c5.4,9.4,16.2-10.1,16.2-10.1L994.5,516.8z"/>
	<path class="st1" d="M1034.9,569.4c0,0,2,23.6,0.7,35.7c-1.3,12.1,3.4,12.8,13.5,24.3c10.1,11.5,52.6,8.1,47.2-6.1
		c-5.4-14.2-27.6-41.8-33-49.2S1034.9,569.4,1034.9,569.4z"/>
	<path class="st1" d="M1120.5,685.3c-2.7,7.4-12.1,32.3-14.2,44.5c-2,12.1-6.1,20.9,12.1,20.9"/>
	<line class="st4" x1="1076.7" y1="1094.3" x2="271.4" y2="307.2"/>
	<path class="st4" d="M243.1,550.5C295.7,568,578.7,847.7,700.7,1091"/>
	<line class="st5" x1="1089" y1="1117.3" x2="234" y2="262.4"/>
	<path class="st5" d="M240.1,256.9c7.4,10,863.9,855.3,863.9,855.3"/>
	<path class="st5" d="M710,1107L512.3,824.5l-64-82.2C409.4,687.8,339,622.7,283.4,585.5"/>
	<path class="st5" d="M367.5,636.4C475.3,742,435.1,698.3,521,817.2c119.6,165.5,200.9,287.6,200.9,287.6"/>
	<polyline class="st5" points="661.3,988.2 889.7,925.5 860.1,893.9 639,960.6 	"/>
	<polyline class="st6" points="362.9,623.9 419.9,536.1 322.8,323.3 	"/>
	<path class="st6" d="M362.1,624.4l186.9-6.1l-97-212.8l-168.4,12.2"/>
	<polyline class="st7" points="218.6,258.4 452.1,405.9 283.8,417.9 	"/>
	<ellipse class="st8" cx="415.3" cy="656.3" rx="29" ry="52.9"/>
	<ellipse class="st8" cx="564.9" cy="843" rx="29" ry="52.9"/>
	<ellipse class="st8" cx="469.2" cy="712.9" rx="29" ry="52.9"/>
	<path class="st6" d="M341,454.5c-3.7,13.5,39.8,171.3,39.8,171.3l223.1,284.3l244.2-153.6l-26.7-73.7l-312-240.5L341,454.5"/>
	<polyline class="st7" points="341.3,454.6 509.6,442.6 821.4,682.8 613.4,769.2 341.3,454.6 	"/>
	<g class="st9">
		<rect x="623.9" y="613.8" class="st10" width="113.2" height="84.2"/>
		
			<ellipse transform="matrix(0.9251 -0.3796 0.3796 0.9251 -160.8368 276.3997)" class="st11" cx="620.4" cy="546" rx="8.3" ry="7"/>
		<path class="st12" d="M688.9,575.5c14,34.1,2.5,52.1-17.2,60.2c-19.7,8.1-39.2,7.8-54.8-30.2l-2.5-7.3
			c-15.6-38-2.1-51.8,17.6-59.9c19.7-8.1,40.3-3.3,54.3,30.9L688.9,575.5z"/>
		<path class="st13" d="M668.6,580.5c6.5-2.7,9.6-10.1,6.9-16.6s-10.1-9.6-16.6-6.9l-32.7,13.4c-6.5,2.7-9.6,10.1-6.9,16.6
			c2.7,6.5,10.1,9.6,16.6,6.9L668.6,580.5z"/>
		<circle cx="630.2" cy="582.3" r="11.2"/>
		<circle cx="665.9" cy="568.8" r="11.2"/>
		<circle cx="664.9" cy="568" r="8.8"/>
		<path class="st14" d="M666.7,598.9c-0.9,3.4-12.2,8-16.2,6.6c-4-1.4-12-23.7-11.3-27.5c0.7-3.8,12.4-9.1,16.2-6.6
			S667.6,595.5,666.7,598.9z"/>
		<polygon class="st12" points="623.9,698.1 584.8,756 596.9,803.2 624.5,787.7 627.2,741.9 658.2,721 734.4,707.5 688.6,693.4 		
			"/>
	</g>
	<path class="st15" d="M562.9,970c2-4.7,63.3-111.9,63.3-111.9l183.3,39.8l44.5-72.1l-11.5-85.6L959.1,755l-85.6,223.7"/>
	<polygon class="st8" points="626.2,858.1 657.9,758.4 794.7,702.5 842.5,740.2 854,825.8 809.5,899.2 	"/>
	<circle class="st15" cx="737.4" cy="744.9" r="95.7"/>
	<path class="st8" d="M686.2,678.2l-12.8-122.6c0,0-52.9-23.4,9.4-44.5c43.8-14.8,134.8,0,79.5,35.7l5.4,126
		C767.7,672.8,738.8,703.8,686.2,678.2z"/>
	<circle class="st5" cx="760.3" cy="765.8" r="18.9"/>
	<path class="st16" d="M680.8,538c0,0,46.5,22.9,72.8-6.7"/>
	<path class="st17" d="M771.8,610.1c-3,3.6-19,31.2-19,31.2l19.3,3.6L771.8,610.1z"/>
	<polygon class="st17" points="623.8,621.2 714.8,626 691.9,654.3 623.8,642.2 	"/>
	<polygon class="st18" points="771.5,610.5 765.1,611.1 765.5,619.9 	"/>
</g>
</svg>
