<svg xmlns="http://www.w3.org/2000/svg" viewBox="0 0 116.01 81.75"><defs><style>.cls-1{fill:red;stroke:red;stroke-miterlimit:10;stroke-width:2px;}.cls-2{fill:#fefefe;}</style></defs><title>youtubecol</title><g id="Layer_2" data-name="Layer 2"><g id="Layer_1-2" data-name="Layer 1"><path class="cls-1" d="M57.67,80.75c-13-.39-25.93.55-38.87-.9C8.6,78.7,4.08,74.61,2.64,64.42A164.77,164.77,0,0,1,2.65,18C4.08,7.91,8.38,3.64,18.43,2.75a451,451,0,0,1,79.82,0c9,.8,13.57,5.2,14.92,14.19a161.13,161.13,0,0,1,0,48.52c-1.39,9.11-6.05,13.21-15.35,14.29C84.46,81.35,71.05,80.37,57.67,80.75ZM46.57,58,76.15,41.21,46.57,24.43Z"/><path class="cls-2" d="M46.57,58V24.43L76.15,41.21Z"/></g></g></svg>