<svg id="Layer_2" data-name="Layer 2" xmlns="http://www.w3.org/2000/svg" viewBox="0 0 3500 1038"><defs><style>.cls-1{fill:#39293a;}.cls-2,.cls-3,.cls-4{fill:none;stroke-miterlimit:10;stroke-width:8px;}.cls-2{stroke:#f95858;}.cls-3{stroke:#39293a;opacity:0.38;}.cls-4{stroke:#5973f7;}</style></defs><title>parallax5</title><path class="cls-1" d="M0,553.82l59.65,21s76.51,102,150,93,213,.56,213,.56l30-57.29,96-15.28h234l492,72.57h261s19.5,96.95,111,80.45l91.51-16.5s-31.5,66,73.51,61.51,351-105,351-105l18-105s34.5,15,33-30l-1.5-45,148.51-75,96-78h108l81,21,111-3,36,93,87,30,15,42,45,36.09,18,41.92,99-6,15-48,120,12.09,30-96.1,102-6L3375,519l93-43.19,32-81V1038H0Z"/><path class="cls-2" d="M1758.79,787.81s1.91-9.35-1.09-8.34-8.91,258.24-8.91,258.24"/><path class="cls-3" d="M1758.79,787.81s1.91-9.35-1.09-8.34-8.91,258.24-8.91,258.24"/><path class="cls-4" d="M1767.23,790.17s2.61-10.53-.39-9.53-8.39,256.87-8.39,256.87"/><path class="cls-3" d="M1767.23,790.17s2.61-10.53-.39-9.53-8.39,256.87-8.39,256.87"/></svg>