<svg id="Layer_2" data-name="Layer 2" xmlns="http://www.w3.org/2000/svg" viewBox="0 0 3500 1038"><defs><style>.cls-1{fill:#d0abd8;}</style></defs><title>parallax2</title><path class="cls-1" d="M0,423.6l282.16-16.5s-30.75,48,16.5,70.5,42,63,120,12,115.49-110.24,96-108,136.49,19.5,136.49,19.5,73.5,7.5,67.5,16.5,33-18,33-18l112.49-18.06,19.5-28.44h30v-18l13.5,21,34.5-6s33,38.25,63,33,19.5-12,19.5-12l22.5,6,34.5,12,87-22.5s55.5,12,57,24,40.5,40.5,40.5,40.5-24.75,66.75,25.5,51,57-9,57-9l55.5,22.5s15,33,28.5,33,13.5-18,13.5-18l24,8.41s52.5-23.09,81,0h30l27,9.59,25.5-9.59,28.5,9.59S1729.5,567,1756,567s96,51,96,51,56.5-16,63-8,145,46,190,41l23,.45S2147.5,696,2192,692s94,2.5,115-5l11-19s75-21.5,182,8l212,26v336H0Z"/><path class="cls-1" d="M2712,493.82l19.5-49.32s37.75,1.5,67-12a184.74,184.74,0,0,0,34.5,16s-8.75,5.5,77.5-5.5l18.5,11.5s9,6.75,15.5-4.5,7,13.16,7,13.16h15s3.5-12.41,8.5-11.66,10,16,10,16,100.5-.5,112,6,26.5,20.32,26.5,20.32,316.76,18.27,358,276.26C3481.5,770.08,2918.2,1713,2712,493.82Z"/></svg>