<svg xmlns="http://www.w3.org/2000/svg" viewBox="0 0 3500 1038"><defs><style>.cls-1{fill:#e5b3cd;}.cls-2{fill:#fff;}.cls-3,.cls-5,.cls-6{fill:none;stroke-miterlimit:10;stroke-width:3px;}.cls-3{stroke:#5973f7;}.cls-4{fill:#e8c1d8;}.cls-5{stroke:#e5b3cd;opacity:0.5;}.cls-6{stroke:#f95858;}</style></defs><title>parallax1</title><g id="Layer_2" data-name="Layer 2"><path class="cls-1" d="M0,446.09H34.68l19.5-6s27,21.75,45,16.5,21-16.5,21-16.5l7.5,24,88.5-45s-.75,33.75,75,22.5,99-48,99-48l117,54s64.5-28.5,178.49-111c0,0,151.49,71.25,210,63.75s37.5-27.75,37.5-27.75,30,8.25,55.5-21h28.5s39.75-26.25,51-30,27.75,3.75,46.5,0,37.5-30,37.5-30l91.5,49.5,13.5-10.5s70.5,168.74,204,162,97.5,34.82,175.49,26.41,255-89.41,255-89.41l22.5-7.5,12-16.23s13.5,3.48,31.5-16.77,39-21,39-21,5.57.29,36-49.5c8.25-13.5,9,16.5,79.5-43.5,0,0,8.25-11.25,33-6s68.25,89.25,136.49,75,156.74,47.25,157.49,42,58.5,70.5,157.49,25.5c0,0,57,75.9,82.45,68.4l36,558H0Z"/><path class="cls-2" d="M1482.1,567.59l19.5-10.5s222-3.75,240,0c0,0,20.65-14.16,33-13.5s-24.59-15-24.59-15l74.25,4.41s-18.5,11.43-20,15.09c0,0-27.25,4-38.25,13.16,0,0,163.75,9.25,160.5,12.75s5.25,4.25-13.5,4.5c0,0-10.5,6.75-4,11s31-2.75,36,0,75.75,8,85,5,4-9.5,4-9.5,35-2.25,34.5-4,2.5-4.5,2.5-4.5h62.5s-9.75,39.75-46.5,67c0,0-31.5,41-32.5,54.5s-36,47-107,59.5-112.75,29.75-167,16.5-2.75-21.5-177-85.5L1486,608s10-6.25,23.5-16.5S1500.71,572.18,1482.1,567.59Z"/><path class="cls-1" d="M2807.92,666.55c-86.27,106.22,282,24,282,24s218.53,174,410,126v-396l-89.5-49c-25,16-44.52,56.53-101.52,40s-63-57.69-63-57.69-22.22,19.57-60,51.69c-43.3,36.81-68,42.81-68,42.81L3040.67,479l-49.72,1.53L2892,386S2885.85,570.6,2807.92,666.55Z"/></g><g id="Layer_3" data-name="Layer 3"><path class="cls-3" d="M2422,717.5S2225,583,2187,505s-27.22-228.49-27.22-228.49,16.75-38.68,2.7-59.56"/><path class="cls-4" d="M2072.37,224.22s4.88-40.21,78.35-112.41l2,8.05S2107.39,208.57,2072.37,224.22Z"/><path class="cls-1" d="M2114.87,273.76s30.1-43.59,26.41-50.71c-4.48-8.64-14-22-14-22L2142,186s20.86,24.07,22.08,30.93c1.89,10.65-7.33,59.56-7.33,59.56Z"/><path class="cls-1" d="M2142.28,186s20-35.86,8.43-74.2c2.88,23.19-57,97.41-78.35,112.41,18.76-2.18,56.56-22.1,56.56-22.1Z"/><path class="cls-5" d="M2422,717.5S2225,583,2187,505s-27.22-228.49-27.22-228.49,16.75-38.68,2.7-59.56"/><path class="cls-6" d="M2419,717.5S2222,583,2184,505s-27.22-228.49-27.22-228.49,14.33-28.12,5.72-59.56"/><polygon class="cls-1" points="2110.38 186.86 2065.58 151.48 2119.59 174.26 2110.38 186.86"/><circle class="cls-1" cx="2067.85" cy="152.57" r="3.07" transform="translate(-4.65 216.04) rotate(-5.97)"/><path class="cls-5" d="M2419,717.5S2222,583,2184,505s-27.22-228.49-27.22-228.49,14.33-28.12,5.72-59.56"/></g></svg>