<svg id="Layer_1" data-name="Layer 1" xmlns="http://www.w3.org/2000/svg" viewBox="0 0 3500 1038"><defs><style>.cls-1{fill:#8e6299;}.cls-2,.cls-3,.cls-4{fill:none;stroke-miterlimit:10;stroke-width:6px;}.cls-2{stroke:#f95858;}.cls-3{stroke:#8e6299;opacity:0.22;}.cls-4{stroke:#5973f7;}</style></defs><title>parallax3</title><path class="cls-1" d="M0,399.6,267.16,542.09h28.5l91.5-109.49s192,72.75,192,69,33-61.5,33-61.5l144,67.5,49.5-66,39,9,31.5-39,58.5,13.5,130.49-3,37.5-9s141,87.31,192,105.9,139.49,9.59,139.49,9.59l94.5,22.5v57h34.5l16.5-58.5,170.4,40.5,92.09-48,54,57,78,45,153-33s7.69-95.25,7.5-110.24l114-41.25,53.18-65L2312,391.5l-7.25-3.75.25-10.25s8.25-25.25,13.5-24.5,72,3,72,3l30,10.5s19.25,30.25,42.5,29l100,48s-22.5-4.5,77-13.5l15-32,69-7,19,11,174,29,14,59,63,15,36,42,268-102,27-54,118,12,17-32,40-31v698H0Z"/><path class="cls-2" d="M2171.86,487.35c-2-6.07-26.84-9-6.48,34C2185.57,564,2292,716,2292,716l54,96"/><path class="cls-3" d="M2171.86,487.35c-2-6.07-26.84-9-6.48,34C2185.57,564,2292,716,2292,716l54,96"/><path class="cls-4" d="M2179.08,484.92c-1.5-4.27-22-17.39-6.61,34.74,13.5,45.64,126.67,194.67,126.67,194.67l54,96"/><path class="cls-3" d="M2179.08,484.92c-1.5-4.27-22-17.39-6.61,34.74,13.5,45.64,126.67,194.67,126.67,194.67l54,96"/></svg>