<svg id="Layer_2" data-name="Layer 2" xmlns="http://www.w3.org/2000/svg" viewBox="0 0 3500 1038"><defs><style>.cls-1{fill:#efbcd5;}.cls-2{fill:#f9f2f6;}.cls-3{fill:#f7cbe3;}.cls-4{fill:#d8abc5;}</style></defs><title>parallax0</title><rect class="cls-1" width="3500" height="1038"/><g id="Layer_3" data-name="Layer 3"><circle class="cls-2" cx="1750" cy="476.55" r="99.64"/><path class="cls-3" d="M1866,449s60.82-105.15,136.58-41.9c32.25,26.92,30,58.5,30,58.5h22.5s3.75-69.89,48-31.57c0,0,2.25-26.92,18-17.93,0,0,2.25-36.74,16.5-29.24,0,0,16.5-11.25,25.5-8.25,0,0-8.25-41.25,9-40.5,0,0,26.25-40.5,21-43.5s22.5-15.75,39-7.5c0,0,0-45.75,34.5-37.5s28.5,16.5,28.5,16.5-.75-37.5,13.5-36c0,0,6-34.5,24-28.5l18-.7s6.75-21.8,24-14.3c0,0,35.25-33.14,66-1.57,0,0,5.25,32.32,12,27.07s34.06-2.36,29.44,32.23c-1.33,10,23.67,2.33,26.67,14s-5.33-24,14.67-20l20,4s-7.67-38.67,25.33-34.67,45.33,46,45.33,46,42.33-6.33,29.33,18.67c0,0,23.33-19,26,11.33,0,0,20.33,9,8,34.83,0,0,52.92,22.75,35.17,58,0,0,27.5-39,47.5-13,0,0,22.25-31.25,48.5-8,0,0,8.5-29.5,27-18,0,0-13-34,26-28.5,0,0-29.75-45.8,30.5-42.5,0,0,9-56.75,59.26-36.51,0,0,5.25-31.5,42.68-28.31,26.06-20.78,86.72-3.11,86.72-3.11s6.5-41.33,59.67-30.33c0,0-11.33-54.49,22-65,43-13.55,6-5.35,57.76-63.61S3463-8.61,3500,82.89V1038H0V70.89s99.5-40,162,27c0,0,63.73,6.32,70.5,27.5,0,0,28.5-35.39,71.5,13.61,0,0,116,25.17,118,78,0,0,84-15,98,26,0,0,49,13,40,48,0,0,1,49,32,38l26,8s6-46,46-14,42,54,42,54,29-25,48-2c0,0,30-43,46-30,0,0,22-38,48-20,0,0-9-44,24-36,0,0,1-105,52-84,0,0,49-80,118,0,0,0,46,23,42,46,0,0,27-30,66,2,0,0,79-75,94-2,0,0,49-4,20,50,0,0,22.5-16.25,30,2.5,0,0,6.5-24.75,32-11.5,0,0,27-15.25,40.5,14.5,0,0,60.75-15.25,45.5,25.5,0,0,13.25,13.75,5,24,0,0,39-.25,33,35.5,0,0,10.5-48.75,25.5-42.5,0,0,37.75-43,57.5,12,0,0,33.75,23.75,22,39,0,0,42.75-11.75,70,7s25.5,65,25.5,65S1797,518,1866,449Z"/></g><path class="cls-4" d="M1390,459l-46,60s11,45,70,36,174-57,142-36,94,34,110,24,84-2,84-2l116-92-42,18-74-18-84,28-44-14-40-14-46,12-28-12s-9-23-28-12-42,22-42,22Z"/></svg>