<?xml version="1.0" encoding="utf-8"?>
<!-- Generator: Adobe Illustrator 23.1.0, SVG Export Plug-In . SVG Version: 6.00 Build 0)  -->
<svg version="1.1" id="Layer_1" xmlns="http://www.w3.org/2000/svg" xmlns:xlink="http://www.w3.org/1999/xlink" x="0px" y="0px"
	 viewBox="0 0 3500 1038" style="enable-background:new 0 0 3500 1038;" xml:space="preserve">
<style type="text/css">
	.st0{fill:#231123;}
</style>
<title>parallax8</title>
<path class="st0" d="M0,855c0,0,188-4,174,72h96l124-124h68l52-48h132c0,0,112,98,112,140c0,0,118,24,116,68c0,0,344-56,448-20
	l52,44h56l40-72l48-16l92,4l36,20c0,0,136,16,124,36l60-4l152,8l56-36l72-124l144-24c0,0,296-94,364-60l104-72c0,0,174,28,232,96
	l180-16l168,90l198-110l24,447l-3528,9L0,855z"/>
</svg>
