<svg xmlns="http://www.w3.org/2000/svg" xmlns:xlink="http://www.w3.org/1999/xlink" viewBox="0 0 3500 1038"><defs><style>.cls-1{isolation:isolate;}.cls-2,.cls-3,.cls-7{fill:none;stroke-miterlimit:10;stroke-width:15px;}.cls-2{stroke:#f95858;}.cls-3{stroke:#5973f7;}.cls-4{fill:#39293a;}.cls-5{mask:url(#mask);}.cls-6{opacity:0.22;mix-blend-mode:screen;}.cls-7{stroke:#050000;}</style><mask id="mask" x="1758.79" y="708.81" width="350.1" height="75.94" maskUnits="userSpaceOnUse"/></defs><title>parallax5</title><g class="cls-1"><g id="Layer_2" data-name="Layer 2"><path class="cls-2" d="M2107.17,719.17,1953.34,755.5Z"/><path class="cls-3" d="M2089.17,727.67l-112.5,23.46Z"/><path class="cls-2" d="M1724.49,746.4c-2.39-3.1-39.6-21.52-35.81-12.64"/><path class="cls-3" d="M1742.81,753c-2.39-3.1-40.6-32.52-36.81-23.64"/><path class="cls-4" d="M0,553.82l59.65,21s76.51,102,150,93,213,.56,213,.56l30-57.29,96-15.28h234l492,72.57h261s19.5,96.95,111,80.45l91.51-16.5s-31.5,66,73.51,61.51,351-105,351-105l18-105s34.5,15,33-30l-1.5-45,148.51-75,96-78h108l81,21,111-3,36,93,87,30,15,42,45,36.09,18,41.92,99-6,15-48,120,12.09,30-96.1,102-6L3375,519l93-43.19,32-81V1038H0Z"/><path class="cls-2" d="M1959.34,754.5s-192.67,36.56-216.53-1.48"/><path class="cls-2" d="M1688.67,732.76s7.85,298.71,10.38,295.5"/><path class="cls-3" d="M1706,727.72s14.28,313.6,13.38,309.16"/><path class="cls-3" d="M1980.58,749.1c-173.25,212.56-199.42,31.56-240.11,2"/><g class="cls-5"><g class="cls-6"><path class="cls-7" d="M2107.17,716.11l-153.83,36.34Z"/><path class="cls-7" d="M2089.17,724.61l-112.5,23.46Z"/></g></g></g></g></svg>